<?xml version="1.0" encoding="UTF-8"?>
<svg xmlns="http://www.w3.org/2000/svg" xmlns:xlink="http://www.w3.org/1999/xlink" width="375pt" height="374.999991pt" viewBox="0 0 375 374.999991" version="1.2">
<defs>
<clipPath id="clip1">
  <path d="M 75.390625 13.6875 L 299.640625 13.6875 L 299.640625 361.6875 L 75.390625 361.6875 Z M 75.390625 13.6875 "/>
</clipPath>
</defs>
<g id="surface1">
<g clip-path="url(#clip1)" clip-rule="nonzero">
<path style=" stroke:none;fill-rule:nonzero;fill:rgb(0%,0%,0%);fill-opacity:1;" d="M 295.75 142.671875 C 296.320312 142.492188 296.847656 142.226562 297.332031 141.878906 C 297.816406 141.53125 298.234375 141.117188 298.585938 140.636719 C 298.941406 140.15625 299.210938 139.632812 299.394531 139.0625 C 299.582031 138.496094 299.675781 137.914062 299.675781 137.316406 L 299.675781 47.4375 C 299.675781 46.816406 299.574219 46.210938 299.375 45.625 C 299.175781 45.039062 298.886719 44.5 298.507812 44.007812 C 298.128906 43.515625 297.683594 43.097656 297.164062 42.757812 C 296.648438 42.414062 296.089844 42.164062 295.492188 42.003906 L 188.957031 13.917969 C 188.007812 13.660156 187.058594 13.660156 186.109375 13.917969 L 79.574219 42.003906 C 78.972656 42.164062 78.417969 42.414062 77.898438 42.757812 C 77.382812 43.097656 76.9375 43.515625 76.558594 44.007812 C 76.179688 44.5 75.890625 45.039062 75.691406 45.625 C 75.488281 46.214844 75.390625 46.816406 75.390625 47.4375 L 75.390625 137.316406 C 75.390625 137.914062 75.484375 138.496094 75.671875 139.0625 C 75.855469 139.632812 76.125 140.15625 76.476562 140.636719 C 76.832031 141.117188 77.25 141.53125 77.734375 141.878906 C 78.21875 142.226562 78.746094 142.492188 79.316406 142.671875 L 177.046875 173.566406 L 169.589844 181.039062 L 150.773438 171.613281 C 150.460938 171.457031 150.136719 171.332031 149.800781 171.238281 C 149.464844 171.144531 149.125 171.082031 148.777344 171.050781 C 148.429688 171.019531 148.082031 171.023438 147.734375 171.054688 C 147.386719 171.089844 147.046875 171.15625 146.710938 171.253906 C 146.378906 171.351562 146.054688 171.480469 145.746094 171.640625 C 145.433594 171.796875 145.140625 171.984375 144.863281 172.195312 C 144.585938 172.410156 144.332031 172.644531 144.101562 172.90625 C 143.871094 173.167969 143.664062 173.445312 143.484375 173.746094 L 131.574219 193.621094 C 130.917969 194.714844 130.316406 195.839844 129.765625 196.992188 C 129.21875 198.144531 128.726562 199.320312 128.289062 200.519531 C 127.851562 201.71875 127.472656 202.933594 127.148438 204.171875 C 126.828125 205.40625 126.566406 206.652344 126.363281 207.914062 C 126.160156 209.175781 126.019531 210.441406 125.9375 211.714844 C 125.855469 212.988281 125.832031 214.265625 125.871094 215.539062 C 125.910156 216.816406 126.011719 218.089844 126.171875 219.355469 C 126.332031 220.621094 126.550781 221.878906 126.832031 223.121094 C 127.109375 224.367188 127.449219 225.597656 127.84375 226.8125 C 128.242188 228.023438 128.695312 229.214844 129.207031 230.386719 C 129.714844 231.554688 130.277344 232.699219 130.898438 233.816406 C 131.515625 234.933594 132.1875 236.015625 132.910156 237.066406 C 133.628906 238.121094 134.398438 239.136719 135.21875 240.113281 C 136.035156 241.09375 136.898438 242.03125 137.808594 242.925781 C 138.714844 243.824219 139.664062 244.675781 140.652344 245.480469 C 141.640625 246.285156 142.664062 247.042969 143.722656 247.75 L 160.394531 258.890625 L 167.453125 280.105469 C 168.003906 281.757812 168.746094 283.3125 169.679688 284.78125 C 170.617188 286.246094 171.714844 287.574219 172.976562 288.769531 C 174.238281 289.964844 175.628906 290.984375 177.140625 291.835938 C 178.65625 292.6875 180.25 293.339844 181.925781 293.796875 L 181.925781 327.863281 L 164.117188 313.585938 C 163.152344 311.347656 162.03125 309.191406 160.75 307.117188 C 159.46875 305.039062 158.046875 303.070312 156.476562 301.203125 C 154.910156 299.335938 153.214844 297.59375 151.394531 295.976562 C 149.570312 294.359375 147.640625 292.882812 145.605469 291.546875 C 143.566406 290.210938 141.445312 289.027344 139.234375 288.003906 C 137.023438 286.980469 134.753906 286.121094 132.417969 285.429688 C 130.082031 284.738281 127.710938 284.21875 125.300781 283.875 C 122.890625 283.527344 120.46875 283.359375 118.03125 283.371094 C 116.253906 283.371094 114.480469 283.476562 112.714844 283.695312 C 110.949219 283.910156 109.203125 284.234375 107.480469 284.667969 C 105.753906 285.101562 104.058594 285.636719 102.402344 286.28125 C 100.742188 286.921875 99.128906 287.664062 97.558594 288.503906 C 95.992188 289.34375 94.480469 290.277344 93.027344 291.304688 C 91.574219 292.335938 90.1875 293.445312 88.871094 294.644531 C 87.554688 295.84375 86.316406 297.117188 85.15625 298.46875 C 83.996094 299.820312 82.925781 301.238281 81.9375 302.722656 C 81.707031 303.070312 81.515625 303.441406 81.367188 303.832031 C 81.21875 304.222656 81.113281 304.621094 81.050781 305.035156 C 80.992188 305.449219 80.980469 305.867188 81.011719 306.28125 C 81.042969 306.699219 81.121094 307.109375 81.246094 307.507812 C 81.371094 307.90625 81.535156 308.289062 81.742188 308.648438 C 81.953125 309.011719 82.199219 309.347656 82.480469 309.652344 C 82.765625 309.960938 83.078125 310.234375 83.421875 310.472656 C 83.765625 310.707031 84.132812 310.902344 84.519531 311.058594 C 94.109375 314.910156 103.976562 317.8125 114.121094 319.769531 C 124.265625 321.726562 134.503906 322.703125 144.835938 322.695312 L 157.527344 322.695312 L 181.925781 342.246094 L 181.925781 362.015625 L 193.140625 362.015625 L 193.140625 342.246094 L 217.535156 322.695312 L 230.230469 322.695312 C 240.5625 322.703125 250.800781 321.726562 260.945312 319.769531 C 271.089844 317.8125 280.957031 314.910156 290.546875 311.058594 C 290.933594 310.90625 291.300781 310.707031 291.644531 310.472656 C 291.988281 310.234375 292.300781 309.960938 292.585938 309.652344 C 292.867188 309.347656 293.113281 309.011719 293.320312 308.648438 C 293.53125 308.289062 293.695312 307.90625 293.820312 307.507812 C 293.945312 307.109375 294.023438 306.699219 294.054688 306.28125 C 294.085938 305.867188 294.074219 305.449219 294.011719 305.035156 C 293.953125 304.621094 293.847656 304.222656 293.699219 303.832031 C 293.550781 303.441406 293.359375 303.070312 293.125 302.722656 C 292.140625 301.238281 291.066406 299.820312 289.902344 298.464844 C 288.742188 297.113281 287.5 295.835938 286.183594 294.636719 C 284.863281 293.4375 283.476562 292.324219 282.019531 291.296875 C 280.566406 290.269531 279.050781 289.335938 277.480469 288.492188 C 275.910156 287.652344 274.292969 286.910156 272.632812 286.269531 C 270.96875 285.628906 269.273438 285.09375 267.546875 284.660156 C 265.816406 284.230469 264.070312 283.90625 262.300781 283.6875 C 260.53125 283.472656 258.757812 283.367188 256.976562 283.371094 C 254.542969 283.363281 252.125 283.53125 249.714844 283.878906 C 247.308594 284.226562 244.9375 284.746094 242.605469 285.4375 C 240.273438 286.132812 238.003906 286.992188 235.796875 288.015625 C 233.589844 289.042969 231.46875 290.222656 229.4375 291.558594 C 227.402344 292.894531 225.472656 294.371094 223.65625 295.988281 C 221.835938 297.605469 220.144531 299.347656 218.578125 301.210938 C 217.011719 303.078125 215.589844 305.046875 214.3125 307.121094 C 213.035156 309.195312 211.914062 311.351562 210.949219 313.585938 L 193.140625 327.863281 L 193.140625 293.796875 C 194.816406 293.339844 196.410156 292.6875 197.925781 291.835938 C 199.4375 290.984375 200.828125 289.964844 202.089844 288.769531 C 203.351562 287.574219 204.449219 286.246094 205.382812 284.78125 C 206.320312 283.3125 207.0625 281.757812 207.613281 280.105469 L 214.671875 258.890625 L 231.339844 247.75 C 232.402344 247.042969 233.425781 246.285156 234.414062 245.480469 C 235.402344 244.675781 236.351562 243.824219 237.257812 242.925781 C 238.167969 242.03125 239.027344 241.09375 239.847656 240.113281 C 240.664062 239.136719 241.433594 238.121094 242.15625 237.066406 C 242.878906 236.015625 243.550781 234.933594 244.167969 233.816406 C 244.785156 232.699219 245.351562 231.554688 245.859375 230.386719 C 246.371094 229.214844 246.824219 228.023438 247.21875 226.8125 C 247.617188 225.597656 247.953125 224.367188 248.234375 223.121094 C 248.515625 221.878906 248.734375 220.621094 248.894531 219.355469 C 249.054688 218.089844 249.152344 216.816406 249.191406 215.539062 C 249.230469 214.265625 249.210938 212.988281 249.128906 211.714844 C 249.046875 210.441406 248.902344 209.175781 248.703125 207.914062 C 248.5 206.652344 248.238281 205.40625 247.914062 204.171875 C 247.59375 202.933594 247.214844 201.71875 246.777344 200.519531 C 246.339844 199.320312 245.847656 198.144531 245.300781 196.992188 C 244.75 195.839844 244.148438 194.714844 243.492188 193.621094 L 231.589844 173.746094 C 231.40625 173.445312 231.203125 173.167969 230.96875 172.90625 C 230.738281 172.644531 230.484375 172.410156 230.207031 172.195312 C 229.929688 171.984375 229.636719 171.796875 229.328125 171.640625 C 229.015625 171.480469 228.695312 171.351562 228.359375 171.253906 C 228.023438 171.15625 227.683594 171.089844 227.335938 171.054688 C 226.988281 171.023438 226.644531 171.019531 226.296875 171.050781 C 225.949219 171.082031 225.605469 171.144531 225.269531 171.238281 C 224.933594 171.332031 224.609375 171.457031 224.296875 171.613281 L 205.476562 181.039062 L 198.039062 173.589844 Z M 144.835938 311.457031 C 128.109375 311.472656 111.832031 308.769531 96.007812 303.347656 C 97.488281 301.953125 99.085938 300.707031 100.800781 299.617188 C 102.519531 298.527344 104.320312 297.605469 106.210938 296.855469 C 108.101562 296.109375 110.046875 295.546875 112.042969 295.167969 C 114.039062 294.789062 116.054688 294.601562 118.089844 294.605469 C 119.660156 294.601562 121.230469 294.691406 122.789062 294.878906 C 124.351562 295.0625 125.898438 295.34375 127.425781 295.71875 C 128.953125 296.09375 130.453125 296.558594 131.925781 297.113281 C 133.394531 297.671875 134.828125 298.316406 136.222656 299.046875 C 137.613281 299.777344 138.957031 300.59375 140.253906 301.488281 C 141.546875 302.382812 142.78125 303.351562 143.957031 304.398438 C 145.136719 305.445312 146.242188 306.558594 147.285156 307.738281 C 148.328125 308.921875 149.292969 310.160156 150.183594 311.457031 Z M 257.0625 294.605469 C 259.089844 294.605469 261.097656 294.792969 263.09375 295.171875 C 265.085938 295.550781 267.023438 296.117188 268.910156 296.863281 C 270.792969 297.613281 272.59375 298.53125 274.304688 299.621094 C 276.015625 300.710938 277.609375 301.953125 279.085938 303.347656 C 263.25 308.773438 246.964844 311.476562 230.230469 311.457031 L 224.882812 311.457031 C 225.777344 310.15625 226.746094 308.914062 227.789062 307.734375 C 228.832031 306.550781 229.945312 305.4375 231.125 304.386719 C 232.304688 303.339844 233.542969 302.371094 234.84375 301.472656 C 236.140625 300.578125 237.488281 299.765625 238.886719 299.03125 C 240.28125 298.300781 241.71875 297.65625 243.191406 297.101562 C 244.667969 296.542969 246.171875 296.078125 247.703125 295.707031 C 249.234375 295.332031 250.78125 295.054688 252.347656 294.871094 C 253.914062 294.6875 255.484375 294.597656 257.0625 294.605469 Z M 207.324219 198.765625 C 207.980469 199.421875 208.601562 200.105469 209.1875 200.824219 C 209.773438 201.539062 210.324219 202.28125 210.835938 203.054688 C 211.351562 203.824219 211.828125 204.617188 212.261719 205.433594 C 212.699219 206.25 213.09375 207.089844 213.445312 207.945312 C 213.800781 208.800781 214.113281 209.671875 214.378906 210.558594 C 214.648438 211.445312 214.875 212.34375 215.054688 213.25 C 215.234375 214.160156 215.371094 215.074219 215.460938 215.996094 C 215.550781 216.917969 215.597656 217.84375 215.597656 218.769531 C 215.597656 219.695312 215.550781 220.621094 215.460938 221.542969 C 215.371094 222.464844 215.234375 223.378906 215.054688 224.289062 C 214.875 225.199219 214.648438 226.09375 214.378906 226.980469 C 214.113281 227.867188 213.800781 228.742188 213.445312 229.597656 C 213.09375 230.453125 212.699219 231.289062 212.261719 232.105469 C 211.828125 232.921875 211.351562 233.714844 210.835938 234.488281 C 210.324219 235.257812 209.773438 236 209.1875 236.71875 C 208.601562 237.433594 207.980469 238.117188 207.324219 238.773438 L 196.425781 249.667969 L 178.640625 249.667969 L 167.769531 238.773438 C 167.113281 238.117188 166.492188 237.433594 165.90625 236.71875 C 165.320312 236 164.769531 235.257812 164.257812 234.488281 C 163.742188 233.714844 163.265625 232.921875 162.832031 232.105469 C 162.394531 231.289062 162 230.453125 161.648438 229.597656 C 161.292969 228.738281 160.980469 227.867188 160.714844 226.980469 C 160.445312 226.09375 160.21875 225.199219 160.039062 224.289062 C 159.859375 223.378906 159.722656 222.464844 159.632812 221.542969 C 159.542969 220.621094 159.496094 219.695312 159.496094 218.769531 C 159.496094 217.84375 159.542969 216.917969 159.632812 215.996094 C 159.722656 215.074219 159.859375 214.160156 160.039062 213.25 C 160.21875 212.34375 160.445312 211.445312 160.714844 210.558594 C 160.980469 209.671875 161.292969 208.800781 161.648438 207.945312 C 162 207.089844 162.394531 206.25 162.832031 205.433594 C 163.265625 204.617188 163.742188 203.824219 164.257812 203.054688 C 164.769531 202.28125 165.320312 201.539062 165.90625 200.824219 C 166.492188 200.105469 167.113281 199.421875 167.769531 198.765625 L 187.53125 178.964844 Z M 193.140625 163.355469 L 193.140625 79.855469 L 288.460938 54.738281 L 288.460938 133.214844 Z M 187.53125 25.164062 L 272.039062 47.4375 L 187.53125 69.714844 L 103.027344 47.4375 Z M 86.605469 54.738281 L 181.925781 79.867188 L 181.925781 163.355469 L 86.605469 133.203125 Z M 137.070312 214.316406 C 137.070312 211.691406 137.417969 209.113281 138.117188 206.585938 C 138.816406 204.058594 139.839844 201.667969 141.191406 199.417969 L 150.417969 184.003906 L 161.246094 189.425781 L 159.839844 190.835938 C 159.003906 191.671875 158.207031 192.542969 157.449219 193.449219 C 156.691406 194.359375 155.972656 195.300781 155.300781 196.273438 C 154.625 197.246094 154 198.246094 153.414062 199.277344 C 152.832031 200.304688 152.296875 201.359375 151.804688 202.4375 C 151.316406 203.515625 150.878906 204.613281 150.488281 205.730469 C 150.097656 206.847656 149.757812 207.980469 149.472656 209.128906 C 149.183594 210.277344 148.945312 211.433594 148.761719 212.605469 C 148.578125 213.773438 148.449219 214.949219 148.367188 216.128906 C 148.289062 217.3125 148.265625 218.492188 148.292969 219.675781 C 148.320312 220.859375 148.402344 222.039062 148.535156 223.214844 C 148.671875 224.390625 148.855469 225.558594 149.097656 226.71875 C 149.335938 227.878906 149.625 229.023438 149.96875 230.15625 C 150.308594 231.292969 150.703125 232.40625 151.144531 233.503906 C 151.585938 234.601562 152.078125 235.679688 152.617188 236.730469 C 153.15625 237.785156 153.738281 238.8125 154.371094 239.8125 C 155.003906 240.8125 155.679688 241.785156 156.394531 242.722656 L 149.964844 238.429688 C 147.980469 237.109375 146.183594 235.566406 144.578125 233.800781 C 142.976562 232.035156 141.609375 230.101562 140.484375 227.996094 C 139.359375 225.890625 138.507812 223.679688 137.929688 221.363281 C 137.351562 219.042969 137.066406 216.691406 137.070312 214.304688 Z M 187.53125 283.371094 C 186.488281 283.371094 185.46875 283.210938 184.472656 282.890625 C 183.480469 282.570312 182.558594 282.105469 181.710938 281.492188 C 180.863281 280.878906 180.128906 280.152344 179.511719 279.308594 C 178.894531 278.464844 178.417969 277.546875 178.089844 276.550781 L 172.886719 260.902344 L 202.179688 260.902344 L 196.976562 276.550781 C 196.644531 277.546875 196.171875 278.464844 195.554688 279.308594 C 194.9375 280.152344 194.203125 280.878906 193.355469 281.492188 C 192.507812 282.105469 191.585938 282.570312 190.59375 282.890625 C 189.597656 283.210938 188.578125 283.371094 187.53125 283.371094 Z M 224.644531 183.992188 L 233.875 199.40625 C 234.347656 200.195312 234.785156 201.007812 235.179688 201.835938 C 235.574219 202.667969 235.929688 203.515625 236.246094 204.378906 C 236.5625 205.246094 236.835938 206.121094 237.066406 207.011719 C 237.300781 207.90625 237.488281 208.804688 237.632812 209.714844 C 237.78125 210.621094 237.882812 211.535156 237.941406 212.453125 C 238 213.375 238.015625 214.292969 237.988281 215.214844 C 237.960938 216.132812 237.886719 217.050781 237.773438 217.964844 C 237.65625 218.878906 237.496094 219.78125 237.296875 220.679688 C 237.09375 221.578125 236.847656 222.464844 236.5625 223.339844 C 236.277344 224.214844 235.949219 225.074219 235.582031 225.917969 C 235.210938 226.761719 234.804688 227.585938 234.359375 228.390625 C 233.910156 229.195312 233.429688 229.976562 232.90625 230.734375 C 232.386719 231.492188 231.832031 232.226562 231.238281 232.929688 C 230.648438 233.636719 230.027344 234.3125 229.371094 234.957031 C 228.714844 235.601562 228.03125 236.214844 227.320312 236.796875 C 226.605469 237.375 225.867188 237.921875 225.101562 238.429688 L 218.648438 242.738281 C 219.367188 241.800781 220.039062 240.828125 220.671875 239.828125 C 221.304688 238.828125 221.886719 237.800781 222.425781 236.75 C 222.964844 235.695312 223.457031 234.617188 223.898438 233.519531 C 224.339844 232.421875 224.734375 231.308594 225.074219 230.175781 C 225.417969 229.042969 225.707031 227.894531 225.949219 226.734375 C 226.1875 225.578125 226.371094 224.410156 226.507812 223.234375 C 226.640625 222.058594 226.722656 220.875 226.75 219.695312 C 226.777344 218.511719 226.753906 217.328125 226.675781 216.144531 C 226.597656 214.964844 226.464844 213.789062 226.28125 212.621094 C 226.097656 211.449219 225.859375 210.292969 225.570312 209.144531 C 225.285156 207.996094 224.945312 206.863281 224.554688 205.746094 C 224.164062 204.628906 223.726562 203.53125 223.238281 202.453125 C 222.746094 201.375 222.210938 200.320312 221.628906 199.292969 C 221.042969 198.261719 220.417969 197.261719 219.742188 196.289062 C 219.070312 195.316406 218.355469 194.375 217.59375 193.46875 C 216.835938 192.558594 216.039062 191.6875 215.203125 190.851562 L 213.796875 189.441406 Z M 224.644531 183.992188 "/>
</g>
</g>
</svg>
