<?xml version="1.0" encoding="UTF-8"?>
<svg xmlns="http://www.w3.org/2000/svg" xmlns:xlink="http://www.w3.org/1999/xlink" width="375pt" height="374.999991pt" viewBox="0 0 375 374.999991" version="1.2">
<defs>
<clipPath id="clip1">
  <path d="M 108.164062 37.5 L 267.164062 37.5 L 267.164062 368.25 L 108.164062 368.25 Z M 108.164062 37.5 "/>
</clipPath>
</defs>
<g id="surface1">
<g clip-path="url(#clip1)" clip-rule="nonzero">
<path style=" stroke:none;fill-rule:nonzero;fill:rgb(0%,0%,0%);fill-opacity:1;" d="M 245.332031 65.972656 L 220.414062 65.972656 L 220.414062 59.808594 C 220.414062 47.507812 210.375 37.5 198.039062 37.5 L 177.648438 37.5 C 165.308594 37.5 155.273438 47.507812 155.273438 59.804688 L 155.273438 65.972656 L 130.351562 65.972656 C 118.179688 65.972656 108.273438 75.847656 108.273438 87.980469 L 108.273438 346.425781 C 108.273438 358.566406 118.179688 368.4375 130.351562 368.4375 L 245.332031 368.4375 C 257.507812 368.4375 267.410156 358.566406 267.410156 346.425781 L 267.410156 87.980469 C 267.410156 75.847656 257.507812 65.972656 245.332031 65.972656 Z M 173.714844 59.804688 C 173.714844 57.644531 175.476562 55.882812 177.648438 55.882812 L 198.039062 55.882812 C 200.207031 55.882812 201.972656 57.644531 201.972656 59.804688 L 201.972656 65.972656 L 173.714844 65.972656 Z M 248.96875 346.425781 C 248.96875 348.425781 247.339844 350.050781 245.332031 350.050781 L 130.351562 350.050781 C 128.347656 350.050781 126.714844 348.425781 126.714844 346.425781 L 126.714844 87.980469 C 126.714844 85.984375 128.347656 84.359375 130.351562 84.359375 L 245.332031 84.359375 C 247.339844 84.359375 248.96875 85.984375 248.96875 87.980469 Z M 248.96875 346.425781 "/>
</g>
<path style=" stroke:none;fill-rule:nonzero;fill:rgb(0%,0%,0%);fill-opacity:1;" d="M 139.199219 97.261719 L 236.488281 97.261719 L 236.488281 136.503906 L 139.199219 136.503906 Z M 139.199219 97.261719 "/>
<path style=" stroke:none;fill-rule:nonzero;fill:rgb(0%,0%,0%);fill-opacity:1;" d="M 139.199219 147.441406 L 236.488281 147.441406 L 236.488281 186.644531 L 139.199219 186.644531 Z M 139.199219 147.441406 "/>
<path style=" stroke:none;fill-rule:nonzero;fill:rgb(0%,0%,0%);fill-opacity:1;" d="M 139.199219 197.585938 L 236.488281 197.585938 L 236.488281 236.824219 L 139.199219 236.824219 Z M 139.199219 197.585938 "/>
<path style=" stroke:none;fill-rule:nonzero;fill:rgb(0%,0%,0%);fill-opacity:1;" d="M 139.199219 247.765625 L 236.488281 247.765625 L 236.488281 287.003906 L 139.199219 287.003906 Z M 139.199219 247.765625 "/>
<path style=" stroke:none;fill-rule:nonzero;fill:rgb(0%,0%,0%);fill-opacity:1;" d="M 139.199219 297.945312 L 236.488281 297.945312 L 236.488281 337.148438 L 139.199219 337.148438 Z M 139.199219 297.945312 "/>
</g>
</svg>
