<?xml version="1.0" encoding="UTF-8"?>
<svg xmlns="http://www.w3.org/2000/svg" xmlns:xlink="http://www.w3.org/1999/xlink" width="375pt" height="374.999991pt" viewBox="0 0 375 374.999991" version="1.2">
<g id="surface1">
<path style=" stroke:none;fill-rule:nonzero;fill:rgb(0%,0%,0%);fill-opacity:1;" d="M 99.996094 143.496094 C 106.660156 150.160156 111.285156 158.046875 114.242188 166.375 C 101.457031 166.136719 88.746094 161.226562 78.996094 151.460938 C 58.980469 131.460938 58.980469 99.011719 78.996094 78.992188 C 99.003906 58.976562 131.449219 58.976562 151.460938 78.992188 C 161.269531 88.800781 166.195312 101.574219 166.394531 114.425781 C 157.886719 111.402344 150.058594 106.574219 143.484375 99.992188 L 136.96875 93.488281 C 124.960938 81.476562 105.503906 81.476562 93.488281 93.488281 C 81.476562 105.5 81.476562 124.953125 93.488281 136.96875 Z M 99.996094 143.496094 "/>
<path style=" stroke:none;fill-rule:nonzero;fill:rgb(0%,0%,0%);fill-opacity:1;" d="M 230.460938 99.996094 C 223.796875 106.660156 215.917969 111.285156 207.582031 114.25 C 207.820312 101.457031 212.734375 88.746094 222.496094 78.996094 C 242.507812 58.980469 274.957031 58.980469 294.960938 78.996094 C 314.980469 99.015625 314.980469 131.445312 294.960938 151.460938 C 285.160156 161.269531 272.378906 166.195312 259.539062 166.394531 C 262.546875 157.886719 267.386719 150.058594 273.96875 143.496094 L 280.464844 136.96875 C 292.476562 124.957031 292.476562 105.5 280.464844 93.488281 C 268.464844 81.476562 248.996094 81.476562 236.984375 93.488281 Z M 230.460938 99.996094 "/>
<path style=" stroke:none;fill-rule:nonzero;fill:rgb(0%,0%,0%);fill-opacity:1;" d="M 273.960938 230.457031 C 267.292969 223.789062 262.679688 215.921875 259.714844 207.574219 C 272.496094 207.816406 285.210938 212.742188 294.96875 222.492188 C 314.976562 242.511719 314.976562 274.957031 294.96875 294.957031 C 274.949219 314.976562 242.507812 314.976562 222.492188 294.957031 C 212.691406 285.167969 207.761719 272.375 207.558594 259.542969 C 216.070312 262.546875 223.898438 267.390625 230.472656 273.976562 L 236.988281 280.460938 C 248.996094 292.472656 268.464844 292.472656 280.46875 280.460938 C 292.480469 268.46875 292.480469 248.992188 280.46875 236.980469 Z M 273.960938 230.457031 "/>
<path style=" stroke:none;fill-rule:nonzero;fill:rgb(0%,0%,0%);fill-opacity:1;" d="M 143.5 273.957031 C 150.164062 267.289062 158.039062 262.6875 166.378906 259.722656 C 166.136719 272.492188 161.222656 285.207031 151.460938 294.976562 C 131.453125 314.976562 99 314.976562 78.996094 294.976562 C 58.980469 274.957031 58.980469 242.507812 78.996094 222.488281 C 88.796875 212.699219 101.578125 207.753906 114.421875 207.558594 C 111.410156 216.066406 106.570312 223.894531 99.988281 230.476562 L 93.496094 236.984375 C 81.484375 248.992188 81.484375 268.46875 93.496094 280.464844 C 105.492188 292.476562 124.960938 292.476562 136.976562 280.464844 Z M 143.5 273.957031 "/>
<path style=" stroke:none;fill-rule:nonzero;fill:rgb(0%,0%,0%);fill-opacity:1;" d="M 259.453125 244.949219 C 227.4375 212.941406 227.4375 161.011719 259.453125 129.003906 L 273.21875 115.230469 L 258.726562 100.738281 L 244.964844 114.492188 C 212.941406 146.519531 161.011719 146.519531 129.003906 114.492188 L 115.222656 100.738281 L 100.730469 115.230469 L 114.492188 129.003906 C 146.503906 160.992188 146.511719 212.878906 114.546875 244.910156 L 100.734375 258.722656 L 115.226562 273.214844 L 128.996094 259.460938 C 161.015625 227.433594 212.933594 227.433594 244.953125 259.460938 L 258.726562 273.214844 L 273.21875 258.722656 Z M 259.453125 244.949219 "/>
</g>
</svg>
