<?xml version="1.0" encoding="UTF-8"?>
<svg xmlns="http://www.w3.org/2000/svg" xmlns:xlink="http://www.w3.org/1999/xlink" width="375pt" height="374.999991pt" viewBox="0 0 375 374.999991" version="1.2">
<defs>
<clipPath id="clip1">
  <path d="M 17.390625 76.503906 L 357.890625 76.503906 L 357.890625 298.503906 L 17.390625 298.503906 Z M 17.390625 76.503906 "/>
</clipPath>
</defs>
<g id="surface1">
<path style=" stroke:none;fill-rule:nonzero;fill:rgb(6.269836%,5.879211%,5.099487%);fill-opacity:1;" d="M 246.921875 103.199219 C 243.898438 103.199219 241.449219 105.640625 241.449219 108.664062 L 241.449219 187.507812 C 241.449219 190.53125 243.898438 192.972656 246.921875 192.972656 L 294.730469 192.972656 C 297.753906 192.972656 300.203125 190.53125 300.203125 187.507812 C 300.203125 184.488281 297.753906 182.042969 294.730469 182.042969 L 252.394531 182.042969 L 252.394531 108.664062 C 252.394531 105.640625 249.945312 103.199219 246.921875 103.199219 "/>
<path style=" stroke:none;fill-rule:nonzero;fill:rgb(6.269836%,5.879211%,5.099487%);fill-opacity:1;" d="M 55.671875 209.710938 L 142.558594 209.710938 C 145.582031 209.710938 148.03125 207.265625 148.03125 204.246094 C 148.03125 201.222656 145.582031 198.78125 142.558594 198.78125 L 55.671875 198.78125 C 52.652344 198.78125 50.199219 201.222656 50.199219 204.246094 C 50.199219 207.265625 52.652344 209.710938 55.671875 209.710938 "/>
<path style=" stroke:none;fill-rule:nonzero;fill:rgb(6.269836%,5.879211%,5.099487%);fill-opacity:1;" d="M 88.335938 176.230469 L 142.558594 176.230469 C 145.582031 176.230469 148.03125 173.789062 148.03125 170.765625 C 148.03125 167.746094 145.582031 165.300781 142.558594 165.300781 L 88.335938 165.300781 C 85.3125 165.300781 82.859375 167.746094 82.859375 170.765625 C 82.859375 173.789062 85.3125 176.230469 88.335938 176.230469 "/>
<g clip-path="url(#clip1)" clip-rule="nonzero">
<path style=" stroke:none;fill-rule:nonzero;fill:rgb(6.269836%,5.879211%,5.099487%);fill-opacity:1;" d="M 246.921875 76.519531 C 207.203125 76.519531 170.703125 97.652344 150.808594 131.828125 L 120.988281 131.828125 C 117.964844 131.828125 115.515625 134.273438 115.515625 137.292969 C 115.515625 140.316406 117.964844 142.757812 120.988281 142.757812 L 153.941406 142.757812 C 154.484375 142.757812 154.976562 142.597656 155.472656 142.449219 C 155.503906 142.441406 155.535156 142.441406 155.570312 142.429688 C 156.144531 142.25 156.648438 141.972656 157.125 141.621094 C 157.246094 141.539062 157.375 141.472656 157.488281 141.378906 C 157.847656 141.066406 158.121094 140.699219 158.390625 140.304688 C 158.515625 140.128906 158.695312 140.011719 158.800781 139.820312 C 176.375 107.515625 210.140625 87.449219 246.921875 87.449219 C 302.179688 87.449219 347.136719 132.335938 347.136719 187.507812 C 347.136719 242.679688 302.179688 287.570312 246.921875 287.570312 C 210.097656 287.570312 176.316406 267.46875 158.753906 235.113281 C 158.632812 234.890625 158.429688 234.746094 158.28125 234.546875 C 158.054688 234.238281 157.839844 233.933594 157.554688 233.675781 C 157.292969 233.449219 157.007812 233.289062 156.714844 233.113281 C 156.402344 232.925781 156.109375 232.742188 155.765625 232.617188 C 155.417969 232.496094 155.0625 232.457031 154.695312 232.40625 C 154.441406 232.367188 154.210938 232.253906 153.941406 232.253906 L 23.019531 232.253906 C 19.996094 232.253906 17.546875 234.695312 17.546875 237.71875 C 17.546875 240.738281 19.996094 243.183594 23.019531 243.183594 L 150.808594 243.183594 C 170.703125 277.363281 207.191406 298.5 246.921875 298.5 C 308.214844 298.5 358.082031 248.710938 358.082031 187.507812 C 358.082031 126.304688 308.214844 76.519531 246.921875 76.519531 "/>
</g>
</g>
</svg>
