<?xml version="1.0" encoding="UTF-8"?>
<svg xmlns="http://www.w3.org/2000/svg" xmlns:xlink="http://www.w3.org/1999/xlink" width="375pt" height="374.999991pt" viewBox="0 0 375 374.999991" version="1.2">
<defs>
<clipPath id="clip1">
  <path d="M 26 55 L 350 55 L 350 322.679688 L 26 322.679688 Z M 26 55 "/>
</clipPath>
</defs>
<g id="surface1">
<g clip-path="url(#clip1)" clip-rule="nonzero">
<path style=" stroke:none;fill-rule:nonzero;fill:rgb(0%,0%,0%);fill-opacity:1;" d="M 87.886719 322.121094 C 70.503906 318.757812 44.566406 309.203125 35.5625 302.839844 C 26.796875 296.648438 24.59375 290.144531 28.539062 282.121094 C 31.722656 275.644531 37.402344 273.335938 48.777344 273.894531 C 72.003906 275.035156 74.300781 274.820312 79.296875 271.082031 C 81.882812 269.144531 93.683594 258.429688 105.523438 247.273438 C 117.359375 236.113281 130.734375 224.085938 135.242188 220.539062 C 139.75 216.996094 145.125 211.570312 147.183594 208.480469 L 150.929688 202.859375 L 145.605469 190.421875 C 141.03125 179.734375 140.28125 176.648438 140.296875 168.535156 C 140.324219 151.078125 144.445312 140.136719 154.617188 130.519531 C 163.480469 122.132812 175.617188 117.097656 201.714844 110.964844 C 235.585938 103.011719 246 99.648438 255.960938 93.445312 C 269.0625 85.285156 288.839844 71.003906 296.628906 64.078125 C 308.21875 53.769531 314.878906 52.707031 318.011719 60.664062 C 320.097656 65.960938 318.910156 71.121094 313.402344 80.746094 C 310.925781 85.070312 308.921875 88.996094 308.945312 89.46875 C 308.96875 89.945312 310.179688 91.839844 311.636719 93.679688 C 314.277344 97.015625 314.289062 97.019531 318.453125 94.46875 C 320.75 93.066406 325.042969 89.859375 327.992188 87.34375 C 335.695312 80.777344 340.777344 79.152344 344.851562 81.960938 C 351.054688 86.234375 350.417969 94.238281 342.925781 106.105469 C 339.109375 112.152344 339.085938 112.296875 341.515625 115.042969 C 344.527344 118.453125 346.070312 126.425781 344.851562 132.269531 C 344.351562 134.65625 342.160156 138.742188 339.980469 141.355469 C 336.113281 145.992188 336.074219 146.175781 338.40625 148.886719 C 341.890625 152.9375 341.429688 159.984375 337.308594 165.671875 C 332.675781 172.0625 322.707031 179.597656 315.4375 182.210938 C 310.574219 183.953125 309.617188 184.859375 309.90625 187.417969 C 310.753906 194.871094 307.617188 199.6875 295.917969 208.882812 C 295.605469 209.128906 296.046875 210.0625 296.898438 210.957031 C 301.683594 215.992188 296.140625 225.714844 286.804688 228.65625 C 283.183594 229.800781 281.605469 231.347656 279.972656 235.367188 C 275.871094 245.472656 259.960938 252.121094 245.882812 249.613281 C 241.359375 248.808594 237.570312 248.222656 237.460938 248.3125 C 237.347656 248.402344 236.671875 253.609375 235.953125 259.890625 C 234.25 274.828125 230.554688 280.984375 220.246094 286.066406 C 213.222656 289.53125 211.699219 289.734375 191.832031 289.859375 L 170.839844 289.992188 L 161.769531 295.039062 C 156.777344 297.816406 148.578125 303.175781 143.546875 306.953125 C 127.476562 319.007812 119.945312 322.179688 106.011719 322.765625 C 99.335938 323.046875 91.179688 322.757812 87.886719 322.121094 Z M 111.351562 313.726562 C 121.175781 312.046875 126.179688 309.535156 139.195312 299.75 C 144.515625 295.75 151.050781 291.253906 153.722656 289.757812 C 158.230469 287.234375 158.578125 286.59375 158.570312 280.820312 C 158.558594 272.085938 156.574219 265.53125 151.605469 257.851562 C 147.066406 250.839844 132.71875 239.539062 128.351562 239.539062 C 126.9375 239.539062 116.726562 248.074219 105.269531 258.832031 C 93.96875 269.445312 82.371094 279.320312 79.496094 280.777344 C 73.414062 283.859375 69.84375 284.117188 51.871094 282.765625 C 38.628906 281.769531 38.625 281.769531 36.417969 285.3125 C 34.703125 288.070312 34.53125 289.480469 35.640625 291.660156 C 38.574219 297.425781 71.671875 310.894531 89.519531 313.582031 C 101.050781 315.320312 101.980469 315.324219 111.351562 313.726562 Z M 217.445312 277.953125 C 225.585938 273.257812 228.003906 267.722656 227.558594 254.808594 C 227.214844 244.960938 227.054688 244.511719 222.480469 240.625 C 215.972656 235.089844 202.492188 231.625 189.5 232.140625 C 178.804688 232.5625 173.765625 234.710938 164.460938 242.808594 C 160.828125 245.96875 160.675781 246.453125 162.390625 249.410156 C 167.292969 257.859375 170.410156 265.988281 171.324219 272.714844 C 172.320312 280.023438 172.386719 280.113281 177.546875 281.019531 C 180.414062 281.523438 189.25 281.796875 197.183594 281.628906 C 209.703125 281.363281 212.378906 280.878906 217.445312 277.957031 Z M 266.40625 237.683594 C 269.273438 236.035156 271.816406 233.613281 272.054688 232.296875 C 272.425781 230.277344 271.421875 229.902344 265.535156 229.851562 C 261.707031 229.816406 255.964844 229.257812 252.769531 228.609375 C 247.257812 227.492188 246.675781 227.691406 241.453125 232.453125 C 238.425781 235.214844 236.179688 237.722656 236.457031 238.023438 C 236.738281 238.328125 239.769531 239.390625 243.195312 240.390625 C 250.90625 242.636719 259.546875 241.628906 266.40625 237.683594 Z M 159.429688 229.753906 C 164.289062 225.882812 169.621094 222.070312 171.285156 221.273438 C 174.488281 219.738281 174.453125 218.886719 170.824219 209.746094 C 169.265625 205.824219 168.359375 205.15625 164.566406 205.15625 C 160.789062 205.15625 159.304688 206.230469 154.585938 212.378906 C 151.539062 216.347656 146.925781 221.621094 144.335938 224.097656 C 140.332031 227.921875 139.9375 228.789062 141.703125 229.886719 C 142.847656 230.59375 145.199219 232.417969 146.933594 233.933594 C 148.664062 235.453125 150.199219 236.714844 150.339844 236.738281 C 150.484375 236.765625 154.574219 233.621094 159.429688 229.753906 Z M 238.613281 223.589844 C 239.65625 221.179688 239.582031 219.824219 238.320312 218.226562 C 236.914062 216.441406 233.652344 216.148438 218.847656 216.464844 C 201.765625 216.832031 201.046875 216.964844 200.660156 219.808594 C 200.179688 223.34375 203.65625 224.792969 219.363281 227.597656 C 231.296875 229.730469 236.414062 228.664062 238.609375 223.589844 Z M 192.566406 218.226562 C 192.566406 213.046875 191.820312 211.210938 188 206.949219 C 182.503906 200.816406 181.292969 195.164062 183.265625 184.828125 C 185.019531 175.640625 189.742188 167.585938 195.558594 163.859375 C 204.359375 158.222656 221.820312 152.832031 242.65625 149.328125 C 282.652344 142.59375 311.257812 129.765625 329.078125 110.570312 C 335.59375 103.554688 342.550781 90.675781 340.257812 89.871094 C 339.5 89.605469 335.808594 91.859375 332.058594 94.875 C 328.308594 97.894531 319.949219 103.714844 313.476562 107.808594 C 282 127.71875 275.554688 130.285156 243.355469 135.695312 C 189.242188 144.785156 179.308594 150.394531 174.425781 174.628906 C 173.617188 178.636719 172.957031 183.898438 172.953125 186.320312 C 172.945312 192.957031 183.296875 222.777344 185.855469 223.492188 C 191.859375 225.175781 192.566406 224.621094 192.566406 218.226562 Z M 286.070312 219.667969 C 290.71875 217.625 292.050781 214.289062 288.75 212.957031 C 287.730469 212.542969 279.335938 212.074219 270.089844 211.914062 C 253.113281 211.621094 247.464844 212.917969 247.464844 217.113281 C 247.464844 221.046875 278.296875 223.085938 286.070312 219.667969 Z M 245.105469 206.289062 C 251.179688 204.375 253.4375 200.9375 251.332031 196.800781 C 250.347656 194.863281 249.175781 194.25 247.691406 194.894531 C 246.492188 195.414062 234.035156 196.125 220.015625 196.472656 C 205.996094 196.820312 193.691406 197.390625 192.671875 197.738281 C 191.332031 198.199219 192.054688 199.679688 195.285156 203.097656 L 199.753906 207.820312 L 219.863281 207.863281 C 231.625 207.890625 242.105469 207.238281 245.101562 206.289062 Z M 295.386719 198.832031 C 298.472656 196.210938 300.566406 193.164062 300.820312 190.925781 C 301.320312 186.535156 301.433594 186.542969 279.492188 189.328125 C 270.867188 190.425781 262.535156 191.339844 260.980469 191.363281 C 258.378906 191.402344 258.261719 191.765625 259.542969 195.875 C 260.308594 198.332031 261.140625 201.171875 261.394531 202.183594 C 261.75 203.617188 265.015625 203.921875 276.109375 203.558594 C 289.804688 203.113281 290.566406 202.925781 295.386719 198.832031 Z M 166.421875 195.722656 C 166.421875 195.070312 164.707031 192.261719 162.609375 189.484375 C 157.992188 183.371094 156.75 176.601562 158.496094 167.03125 C 160.71875 154.847656 165.164062 149.480469 178.742188 142.574219 C 191.027344 136.324219 193.539062 135.511719 225.351562 127.492188 C 254.347656 120.179688 271.597656 111.875 289.8125 96.460938 C 299.328125 88.410156 305.503906 80.125 309.507812 70.035156 C 312.34375 62.898438 309.933594 63.242188 301.019531 71.246094 C 287.410156 83.46875 257.183594 103.636719 245.613281 108.21875 C 241.21875 109.957031 227.632812 113.640625 215.421875 116.398438 C 170.355469 126.585938 158.878906 132.191406 152.261719 147.253906 C 149.476562 153.601562 148.871094 157.035156 148.835938 166.65625 C 148.800781 177.175781 149.234375 179.269531 153.15625 187.625 C 157.265625 196.371094 157.777344 196.90625 161.96875 196.90625 C 164.417969 196.90625 166.421875 196.375 166.421875 195.722656 Z M 246.902344 185.871094 C 249.007812 185.027344 251.738281 183.378906 252.972656 182.207031 C 255 180.273438 255.027344 179.695312 253.265625 176.105469 C 251.425781 172.363281 251.148438 172.257812 248.320312 174.207031 C 245.125 176.410156 221.628906 178.96875 204.265625 179.007812 C 193.609375 179.03125 191.257812 180.242188 191.257812 185.710938 L 191.257812 189.089844 L 217.164062 188.246094 C 231.414062 187.78125 244.792969 186.714844 246.898438 185.871094 Z M 287.820312 179.660156 C 311.285156 176.082031 318.085938 173.34375 328.183594 163.417969 C 332.699219 158.976562 333.53125 155.574219 330.695312 153.101562 C 329.386719 151.957031 326.742188 152.746094 319.914062 156.316406 C 309.125 161.960938 291.472656 167.113281 274.699219 169.519531 C 267.988281 170.484375 262.316406 171.40625 262.089844 171.570312 C 261.863281 171.738281 262.074219 174.101562 262.5625 176.828125 C 263.402344 181.535156 263.703125 181.78125 268.6875 181.78125 C 271.570312 181.78125 280.179688 180.828125 287.820312 179.660156 Z M 227.207031 169.304688 C 235.832031 168.460938 243.664062 167.101562 244.613281 166.285156 C 245.558594 165.464844 247.214844 163 248.289062 160.8125 L 250.246094 156.835938 L 243.953125 157.769531 C 226.09375 160.421875 203.007812 167.46875 201.003906 170.878906 C 200.59375 171.582031 202.722656 171.839844 205.898438 171.476562 C 208.992188 171.125 218.578125 170.144531 227.207031 169.304688 Z M 169.597656 161.152344 C 170.203125 158.765625 170.101562 158.34375 169.257812 159.777344 C 168.59375 160.914062 167.652344 163.386719 167.171875 165.28125 C 166.566406 167.667969 166.667969 168.089844 167.511719 166.65625 C 168.175781 165.519531 169.117188 163.042969 169.597656 161.152344 Z M 287.3125 158.285156 C 304.734375 154.417969 315.605469 149.988281 326.152344 142.460938 C 335.890625 135.507812 338.808594 130.132812 336.425781 123.535156 C 335.703125 121.539062 334.542969 119.902344 333.851562 119.902344 C 333.15625 119.902344 327.996094 123.371094 322.382812 127.613281 C 316.765625 131.855469 308.933594 137.042969 304.980469 139.144531 C 295.558594 144.148438 276.261719 151.292969 266.503906 153.390625 C 259.808594 154.828125 258.617188 155.554688 257.816406 158.703125 C 257.304688 160.710938 257.121094 162.601562 257.40625 162.902344 C 258.214844 163.75 272.910156 161.480469 287.3125 158.285156 Z M 284.066406 115.28125 C 302.578125 105.34375 306.339844 102.832031 305.960938 100.664062 C 305.269531 96.6875 301.136719 97.800781 294.042969 103.878906 C 290.097656 107.261719 283.148438 112.3125 278.605469 115.105469 C 268.964844 121.027344 268.65625 121.28125 271.105469 121.261719 C 272.121094 121.253906 277.957031 118.5625 284.066406 115.28125 Z M 284.066406 115.28125 "/>
</g>
</g>
</svg>
