<?xml version="1.0" encoding="UTF-8"?>
<svg xmlns="http://www.w3.org/2000/svg" xmlns:xlink="http://www.w3.org/1999/xlink" width="375pt" height="374.999991pt" viewBox="0 0 375 374.999991" version="1.2">
<defs>
<clipPath id="clip1">
  <path d="M 113.25 19 L 261.75 19 L 261.75 356 L 113.25 356 Z M 113.25 19 "/>
</clipPath>
</defs>
<g id="surface1">
<g clip-path="url(#clip1)" clip-rule="nonzero">
<path style=" stroke:none;fill-rule:nonzero;fill:rgb(0%,0%,0%);fill-opacity:1;" d="M 127.359375 355.488281 C 126.375 355.488281 125.378906 355.269531 124.4375 354.816406 C 121.394531 353.335938 119.921875 349.84375 120.992188 346.636719 L 171.796875 194.21875 L 120.640625 194.21875 C 118.398438 194.21875 116.300781 193.097656 115.050781 191.230469 C 113.800781 189.359375 113.574219 186.988281 114.4375 184.917969 L 181.632812 23.652344 C 182.675781 21.144531 185.121094 19.511719 187.835938 19.511719 L 251.671875 19.511719 C 253.949219 19.511719 256.070312 20.667969 257.308594 22.578125 C 258.550781 24.492188 258.734375 26.898438 257.804688 28.972656 L 204.921875 147.183594 L 255.03125 147.183594 C 257.496094 147.183594 259.769531 148.539062 260.945312 150.703125 C 262.121094 152.875 262.003906 155.515625 260.65625 157.578125 L 132.984375 352.441406 C 131.703125 354.40625 129.566406 355.488281 127.359375 355.488281 Z M 127.359375 355.488281 "/>
</g>
</g>
</svg>
