<?xml version="1.0" encoding="UTF-8"?>
<svg xmlns="http://www.w3.org/2000/svg" xmlns:xlink="http://www.w3.org/1999/xlink" width="375pt" height="374.999991pt" viewBox="0 0 375 374.999991" version="1.2">
<defs>
<clipPath id="clip1">
  <path d="M 35.304688 35.304688 L 339.804688 35.304688 L 339.804688 339.804688 L 35.304688 339.804688 Z M 35.304688 35.304688 "/>
</clipPath>
</defs>
<g id="surface1">
<path style=" stroke:none;fill-rule:nonzero;fill:rgb(93.728638%,18.03894%,19.60907%);fill-opacity:1;" d="M 192.648438 145.710938 L 205.160156 158.488281 L 220.597656 156.621094 C 220.597656 156.621094 200.902344 145.710938 192.648438 145.710938 "/>
<g clip-path="url(#clip1)" clip-rule="nonzero">
<path style=" stroke:none;fill-rule:nonzero;fill:rgb(93.728638%,18.03894%,19.60907%);fill-opacity:1;" d="M 187.554688 327.476562 C 185.203125 327.476562 182.859375 327.417969 180.527344 327.304688 C 173.367188 311.835938 168.609375 290.542969 171.640625 262.054688 C 171.726562 261.300781 171.800781 260.550781 171.898438 259.808594 C 172.085938 258.332031 172.28125 256.875 172.515625 255.457031 C 172.515625 255.445312 172.515625 255.433594 172.53125 255.421875 C 176.867188 228.089844 189.046875 210.917969 203.496094 201.929688 C 203.519531 201.917969 203.558594 201.90625 203.582031 201.882812 C 225.191406 187.457031 242.816406 187.554688 267.140625 209.632812 C 269.679688 206.503906 276.21875 197.394531 274.863281 184.585938 C 274.839844 184.25 274.789062 183.917969 274.738281 183.574219 C 274.652344 182.972656 274.554688 182.355469 274.417969 181.738281 C 274.34375 181.417969 274.273438 181.082031 274.183594 180.75 C 274.109375 180.417969 274.011719 180.074219 273.914062 179.738281 C 273.59375 178.605469 273.1875 177.472656 272.695312 176.339844 C 272.542969 176.003906 272.398438 175.671875 272.226562 175.328125 C 272.210938 175.304688 272.199219 175.265625 272.175781 175.226562 C 272.027344 174.921875 271.867188 174.597656 271.707031 174.28125 C 270.574219 172.132812 269.132812 169.976562 267.28125 167.832031 C 267.082031 167.585938 266.863281 167.335938 266.640625 167.09375 C 266.246094 166.648438 265.839844 166.203125 265.40625 165.773438 C 265.199219 165.550781 264.976562 165.339844 264.753906 165.121094 C 264.53125 164.898438 264.296875 164.664062 264.050781 164.441406 C 262.191406 162.667969 260.019531 160.917969 257.542969 159.164062 C 257.183594 158.917969 256.828125 158.671875 256.457031 158.425781 C 255.953125 158.089844 255.433594 157.757812 254.902344 157.414062 C 253.867188 156.773438 252.785156 156.121094 251.648438 155.46875 C 251.046875 155.121094 250.429688 154.789062 249.800781 154.445312 C 249.726562 154.40625 249.652344 154.355469 249.566406 154.320312 C 248.53125 153.777344 247.472656 153.222656 246.359375 152.679688 C 243.980469 151.523438 241.417969 150.375 238.667969 149.265625 C 238.667969 149.265625 225.378906 91.976562 109.484375 96.007812 L 143.5 114.710938 C 142.167969 114.5 120.652344 109.496094 87.910156 115.328125 C 82.5 116.289062 77.097656 117.558594 71.847656 119.199219 L 84.136719 123.746094 L 95.121094 127.8125 C 95.121094 127.8125 89.15625 129.566406 80.734375 132.613281 C 74.976562 134.707031 68.0625 137.40625 61.144531 140.574219 C 58.976562 141.558594 56.820312 142.582031 54.6875 143.65625 C 73.140625 87.933594 125.734375 47.632812 187.554688 47.632812 C 264.703125 47.632812 327.476562 110.398438 327.476562 187.554688 C 327.476562 264.703125 264.703125 327.476562 187.554688 327.476562 Z M 124.4375 312.402344 C 113.75 291.320312 115.78125 231.972656 115.78125 231.972656 L 84.347656 248.679688 C 75.101562 196.417969 132.425781 182.589844 132.425781 182.589844 C 108.878906 166.476562 81.839844 163.238281 63.0625 166.378906 C 63.0625 166.378906 103.617188 135.335938 122.988281 135.5625 C 124.96875 135.585938 99.203125 120.269531 99.203125 120.269531 C 99.203125 120.269531 140.433594 119.589844 154.277344 125.816406 C 155.8125 126.503906 151.9375 110.273438 134.34375 102.316406 C 136.144531 102.585938 213.59375 103.78125 235.105469 154.324219 C 235.105469 154.324219 280.910156 168.113281 266.519531 201.167969 C 266.519531 201.167969 233.75 169.175781 202.335938 189.378906 C 170.9375 209.585938 157.746094 242.121094 157.746094 281.53125 C 157.746094 295.304688 160.59375 310.898438 166.140625 325.839844 C 151.347656 323.558594 137.320312 318.960938 124.4375 312.402344 Z M 187.554688 35.304688 C 103.601562 35.304688 35.304688 103.601562 35.304688 187.554688 C 35.304688 223.996094 48.164062 257.46875 69.589844 283.703125 C 69.601562 283.714844 69.613281 283.726562 69.628906 283.738281 C 86.960938 304.96875 109.902344 321.4375 136.164062 330.882812 C 147.492188 334.949219 159.425781 337.722656 171.800781 338.992188 C 176.976562 339.535156 182.230469 339.804688 187.542969 339.804688 L 187.554688 339.804688 C 271.511719 339.804688 339.804688 271.511719 339.804688 187.554688 C 339.804688 103.601562 271.511719 35.304688 187.554688 35.304688 "/>
</g>
</g>
</svg>
