<?xml version="1.0" encoding="UTF-8"?>
<svg xmlns="http://www.w3.org/2000/svg" xmlns:xlink="http://www.w3.org/1999/xlink" width="375pt" height="374.999991pt" viewBox="0 0 375 374.999991" version="1.2">
<g id="surface1">
<path style=" stroke:none;fill-rule:nonzero;fill:rgb(0%,0%,0%);fill-opacity:1;" d="M 195.175781 84.128906 L 220.511719 93.097656 C 217.820312 97.128906 215.523438 101.007812 213.074219 110.132812 C 211.558594 115.519531 219.707031 117.757812 221.113281 112.316406 C 224.191406 100.855469 226.296875 96.21875 228.398438 94.203125 C 237.414062 85.535156 248.78125 83.691406 258.164062 87.355469 C 267.527344 90.992188 275.132812 100.097656 276 115.347656 L 277.84375 147.480469 C 278.378906 156.582031 277.125 162.300781 274.59375 166.566406 C 272.0625 170.859375 267.960938 174.085938 261.851562 177.644531 C 255.113281 181.519531 245.257812 182.511719 236.824219 180.175781 C 228.378906 177.835938 221.632812 172.589844 219.402344 164.289062 C 214.828125 147.238281 220.679688 136.214844 229.238281 130.949219 C 237.796875 125.679688 249.367188 126.242188 257.90625 134.78125 C 261.851562 138.554688 267.570312 132.828125 263.820312 128.890625 C 252.6875 117.753906 236.585938 116.644531 224.863281 123.859375 C 213.140625 131.050781 206.054688 146.675781 211.359375 166.457031 C 214.460938 178.027344 224.054688 185.265625 234.613281 188.191406 C 245.140625 191.113281 257.015625 190.292969 266.027344 184.847656 C 273.59375 180.257812 278.921875 175.425781 282.734375 168.949219 L 300.78125 200.339844 C 304.054688 206.042969 302.777344 211.113281 300.980469 216.789062 L 280.976562 279.796875 C 279.15625 285.515625 276.40625 288.894531 272.136719 290.996094 C 267.871094 293.09375 261.699219 293.835938 253.265625 292.667969 L 198.078125 284.96875 C 190.578125 283.929688 183.574219 276.433594 183.472656 269.046875 C 183.40625 265.40625 184.335938 261.351562 186.132812 257.347656 C 189.929688 258.339844 194 258.777344 198.289062 258.777344 C 206.765625 258.777344 215.148438 257 221.820312 252.886719 C 224.3125 251.371094 226.546875 249.441406 228.371094 247.191406 L 253.675781 247.191406 C 259.203125 247.144531 259.203125 238.871094 253.675781 238.824219 L 232.613281 238.824219 C 233.113281 236.984375 233.394531 235.03125 233.394531 232.996094 L 233.375 201.582031 C 233.722656 195.707031 224.707031 195.707031 225.054688 201.582031 L 225.054688 232.996094 C 225.054688 238.953125 222.324219 242.8125 217.46875 245.804688 C 212.59375 248.796875 205.550781 250.441406 198.292969 250.441406 C 191.035156 250.441406 185.097656 248.925781 181.113281 246.105469 C 177.105469 243.292969 174.628906 239.257812 174.109375 232.65625 L 167.59375 151.316406 C 167.09375 145.234375 158.964844 147.871094 159.296875 151.992188 L 165.808594 233.351562 C 166.285156 239.457031 165.273438 244.980469 159.550781 248.035156 C 155.542969 250.183594 150.042969 251.328125 144.40625 251.328125 C 138.1875 251.328125 133.503906 249.984375 130.257812 247.601562 C 127.003906 245.21875 124.84375 241.726562 123.933594 235.964844 L 113.703125 171.703125 C 112.621094 164.984375 104.597656 167.542969 105.464844 172.984375 L 114.875 232.199219 C 107.960938 235.792969 100.570312 236.703125 94.847656 234.972656 C 88.765625 233.109375 84.253906 228.730469 82.824219 219.949219 L 72.207031 154.652344 C 70.886719 146.546875 72.339844 141.84375 75.21875 138.636719 C 78.101562 135.414062 83.128906 133.332031 89.996094 132.421875 L 104.148438 130.558594 C 105.410156 130.382812 106.507812 129.671875 107.164062 128.589844 L 117.753906 111.148438 C 120.46875 106.6875 124.324219 105.210938 130.429688 106.015625 L 152.402344 108.9375 C 153.730469 109.109375 155.046875 108.628906 155.957031 107.679688 L 175.246094 87.417969 C 181.066406 81.289062 188.285156 81.683594 195.175781 84.128906 Z M 169.195312 81.65625 L 151.382812 100.402344 L 131.539062 97.757812 C 123.195312 96.648438 115.019531 99.574219 110.625 106.8125 L 101.066406 122.542969 L 88.863281 124.167969 C 80.917969 125.230469 73.804688 127.726562 69 133.070312 C 64.210938 138.425781 62.390625 146.265625 63.972656 155.972656 L 74.589844 221.296875 C 76.453125 232.652344 83.605469 240.253906 92.402344 242.941406 C 99.960938 245.261719 108.496094 244.285156 116.429688 240.714844 C 117.988281 246.5 121.003906 251.175781 125.296875 254.339844 C 130.425781 258.105469 137.015625 259.648438 144.40625 259.648438 C 151.125 259.648438 157.796875 258.367188 163.410156 255.402344 C 166.617188 253.730469 169.453125 251.375 171.597656 248.46875 C 173.640625 251.066406 175.953125 252.605469 178.402344 254.230469 C 176.234375 259.144531 175.042969 264.242188 175.109375 269.175781 C 175.300781 281.289062 185.144531 291.601562 196.949219 293.246094 L 252.136719 300.917969 C 261.539062 302.238281 269.449219 301.636719 275.816406 298.496094 C 282.191406 295.351562 286.613281 289.628906 288.929688 282.308594 L 308.929688 219.300781 C 310.835938 213.253906 312.894531 204.742188 308 196.207031 L 285.917969 157.773438 C 286.304688 154.523438 286.398438 150.964844 286.160156 147.023438 L 284.316406 114.890625 C 283.292969 96.972656 273.632812 84.429688 261.199219 79.574219 C 250.015625 75.203125 237.035156 77.816406 226.371094 86.054688 L 197.964844 76.277344 C 187.964844 72.75 176.519531 73.945312 169.195312 81.65625 Z M 169.195312 81.65625 "/>
</g>
</svg>
