<?xml version="1.0" encoding="UTF-8"?>
<svg xmlns="http://www.w3.org/2000/svg" xmlns:xlink="http://www.w3.org/1999/xlink" width="375pt" height="374.999991pt" viewBox="0 0 375 374.999991" version="1.2">
<defs>
<clipPath id="clip1">
  <path d="M 277 345 L 300 345 L 300 356.25 L 277 356.25 Z M 277 345 "/>
</clipPath>
<clipPath id="clip2">
  <path d="M 303 277 L 356.25 277 L 356.25 351 L 303 351 Z M 303 277 "/>
</clipPath>
</defs>
<g id="surface1">
<path style=" stroke:none;fill-rule:nonzero;fill:rgb(6.269836%,5.879211%,5.099487%);fill-opacity:1;" d="M 256.710938 285.3125 C 256.871094 285.3125 257.03125 285.304688 257.191406 285.289062 C 264.398438 284.441406 270.921875 281.277344 276.058594 276.136719 C 281.082031 271.117188 284.222656 264.753906 285.152344 257.730469 C 285.449219 255.5 283.878906 253.449219 281.644531 253.15625 C 279.40625 252.859375 277.367188 254.429688 277.070312 256.660156 C 276.378906 261.890625 274.035156 266.632812 270.296875 270.371094 C 266.46875 274.199219 261.605469 276.558594 256.238281 277.1875 C 254.003906 277.449219 252.40625 279.476562 252.667969 281.714844 C 252.910156 283.789062 254.671875 285.3125 256.710938 285.3125 "/>
<path style=" stroke:none;fill-rule:nonzero;fill:rgb(6.269836%,5.879211%,5.099487%);fill-opacity:1;" d="M 263.78125 310.023438 C 263.875 310.023438 263.976562 310.023438 264.074219 310.015625 C 276.429688 309.140625 287.394531 304.242188 295.78125 295.855469 C 304.167969 287.46875 309.066406 276.507812 309.941406 264.148438 C 310.101562 261.902344 308.40625 259.953125 306.164062 259.792969 C 303.910156 259.621094 301.964844 261.324219 301.808594 263.574219 C 301.074219 273.941406 296.996094 283.109375 290.015625 290.09375 C 283.035156 297.070312 273.867188 301.148438 263.496094 301.882812 C 261.25 302.042969 259.558594 303.992188 259.71875 306.238281 C 259.871094 308.382812 261.660156 310.023438 263.78125 310.023438 "/>
<path style=" stroke:none;fill-rule:nonzero;fill:rgb(6.269836%,5.879211%,5.099487%);fill-opacity:1;" d="M 332.558594 272.808594 C 332.695312 270.5625 330.988281 268.628906 328.742188 268.488281 C 326.488281 268.332031 324.558594 270.0625 324.421875 272.308594 C 323.546875 286.492188 318.039062 299.03125 308.496094 308.574219 C 298.957031 318.117188 286.417969 323.621094 272.234375 324.492188 C 269.988281 324.632812 268.277344 326.566406 268.414062 328.8125 C 268.550781 330.980469 270.34375 332.640625 272.480469 332.640625 C 272.566406 332.640625 272.648438 332.640625 272.734375 332.632812 C 288.933594 331.632812 303.296875 325.308594 314.265625 314.339844 C 325.234375 303.371094 331.558594 289.011719 332.558594 272.808594 "/>
<g clip-path="url(#clip1)" clip-rule="nonzero">
<path style=" stroke:none;fill-rule:nonzero;fill:rgb(6.269836%,5.879211%,5.099487%);fill-opacity:1;" d="M 294.808594 346.027344 C 290.386719 347.089844 285.792969 347.761719 281.140625 348.019531 C 278.894531 348.148438 277.175781 350.074219 277.300781 352.320312 C 277.421875 354.488281 279.21875 356.167969 281.367188 356.167969 C 281.445312 356.167969 281.519531 356.167969 281.597656 356.164062 C 286.734375 355.875 291.820312 355.132812 296.714844 353.953125 C 298.90625 353.425781 300.253906 351.226562 299.726562 349.035156 C 299.199219 346.847656 297 345.496094 294.808594 346.027344 "/>
</g>
<g clip-path="url(#clip2)" clip-rule="nonzero">
<path style=" stroke:none;fill-rule:nonzero;fill:rgb(6.269836%,5.879211%,5.099487%);fill-opacity:1;" d="M 347.949219 281.21875 C 346.929688 299.421875 339.921875 315.515625 327.679688 327.757812 C 321.523438 333.914062 314.316406 338.785156 306.257812 342.234375 C 304.191406 343.121094 303.230469 345.519531 304.117188 347.589844 C 304.78125 349.136719 306.285156 350.0625 307.867188 350.0625 C 308.402344 350.0625 308.949219 349.957031 309.472656 349.730469 C 318.484375 345.871094 326.550781 340.417969 333.445312 333.523438 C 347.128906 319.839844 354.957031 301.914062 356.089844 281.671875 C 356.214844 279.425781 354.496094 277.503906 352.246094 277.375 C 350.007812 277.261719 348.074219 278.96875 347.949219 281.21875 "/>
</g>
<path style=" stroke:none;fill-rule:nonzero;fill:rgb(6.269836%,5.879211%,5.099487%);fill-opacity:1;" d="M 122.503906 112.84375 L 116.402344 118.945312 C 114.8125 120.535156 114.8125 123.117188 116.402344 124.710938 C 117.199219 125.503906 118.238281 125.90625 119.285156 125.90625 C 120.328125 125.90625 121.371094 125.503906 122.164062 124.710938 L 128.269531 118.609375 C 129.859375 117.019531 129.859375 114.4375 128.269531 112.84375 C 126.675781 111.253906 124.09375 111.25 122.503906 112.84375 "/>
<path style=" stroke:none;fill-rule:nonzero;fill:rgb(6.269836%,5.879211%,5.099487%);fill-opacity:1;" d="M 233.953125 230.652344 C 237.996094 226.609375 243.007812 223.597656 248.441406 221.945312 C 250.597656 221.289062 251.808594 219.011719 251.15625 216.859375 C 250.5 214.707031 248.21875 213.488281 246.070312 214.144531 C 239.359375 216.1875 233.175781 219.898438 228.1875 224.890625 L 224.8125 228.261719 C 208.027344 245.050781 208.027344 272.367188 224.8125 289.15625 C 225.578125 289.921875 226.617188 290.351562 227.695312 290.351562 C 228.777344 290.351562 229.816406 289.921875 230.582031 289.15625 L 289.082031 230.652344 C 289.847656 229.890625 290.277344 228.851562 290.277344 227.769531 C 290.277344 226.691406 289.847656 225.652344 289.078125 224.890625 C 283.972656 219.785156 277.628906 216.019531 270.742188 214.007812 C 268.578125 213.375 266.316406 214.617188 265.683594 216.777344 C 265.054688 218.941406 266.292969 221.203125 268.457031 221.832031 C 272.734375 223.082031 276.753906 225.167969 280.261719 227.941406 L 227.863281 280.339844 C 217.042969 266.652344 217.945312 246.664062 230.582031 234.027344 L 233.953125 230.652344 "/>
<path style=" stroke:none;fill-rule:nonzero;fill:rgb(6.269836%,5.879211%,5.099487%);fill-opacity:1;" d="M 256.09375 116.0625 L 227.410156 87.378906 L 247.082031 67.710938 L 259.621094 80.246094 L 246.984375 92.882812 C 245.390625 94.476562 245.390625 97.054688 246.984375 98.648438 C 247.78125 99.445312 248.824219 99.84375 249.867188 99.84375 C 250.910156 99.84375 251.953125 99.445312 252.75 98.648438 L 265.386719 86.011719 L 270.347656 90.972656 C 271.140625 91.769531 272.183594 92.164062 273.226562 92.164062 C 274.273438 92.164062 275.3125 91.769531 276.109375 90.972656 C 277.703125 89.378906 277.703125 86.796875 276.109375 85.207031 L 271.152344 80.246094 L 287.902344 63.496094 L 298.28125 73.875 Z M 242.160156 129.996094 C 237.429688 134.726562 229.726562 134.726562 224.996094 129.996094 L 197.335938 102.332031 C 195.042969 100.039062 193.78125 96.992188 193.78125 93.75 C 193.78125 90.507812 195.042969 87.460938 197.335938 85.167969 L 230.9375 51.566406 L 241.316406 61.941406 L 221.648438 81.613281 L 218.28125 78.253906 C 216.691406 76.660156 214.109375 76.660156 212.515625 78.253906 C 210.925781 79.84375 210.925781 82.425781 212.515625 84.015625 L 215.878906 87.378906 L 207.582031 95.671875 C 205.992188 97.265625 205.992188 99.847656 207.582031 101.441406 C 208.378906 102.234375 209.425781 102.632812 210.464844 102.632812 C 211.511719 102.632812 212.554688 102.234375 213.351562 101.441406 L 221.648438 93.144531 L 234.183594 105.683594 L 225.890625 113.980469 C 224.296875 115.570312 224.296875 118.152344 225.890625 119.742188 C 226.683594 120.539062 227.726562 120.9375 228.773438 120.9375 C 229.816406 120.9375 230.855469 120.539062 231.65625 119.742188 L 239.949219 111.449219 L 250.328125 121.824219 Z M 250.570312 20.402344 C 248.980469 21.992188 248.980469 24.574219 250.570312 26.164062 L 263.832031 39.429688 L 255.457031 47.804688 C 253.867188 49.394531 253.867188 51.976562 255.457031 53.566406 C 256.253906 54.363281 257.296875 54.761719 258.339844 54.761719 C 259.382812 54.761719 260.425781 54.363281 261.222656 53.566406 L 269.597656 45.191406 L 282.136719 57.730469 L 265.386719 74.480469 L 249.96875 59.066406 C 249.964844 59.0625 249.964844 59.0625 249.964844 59.0625 C 249.964844 59.058594 249.960938 59.058594 249.957031 59.054688 L 236.703125 45.796875 L 240.191406 42.308594 C 241.785156 40.71875 241.785156 38.136719 240.191406 36.542969 C 238.601562 34.953125 236.019531 34.953125 234.425781 36.542969 L 191.566406 79.402344 C 187.738281 83.238281 185.625 88.332031 185.625 93.75 C 185.625 99.171875 187.738281 104.265625 191.566406 108.097656 L 219.230469 135.757812 C 223.1875 139.714844 228.382812 141.695312 233.578125 141.695312 C 238.773438 141.695312 243.96875 139.714844 247.925781 135.757812 L 258.976562 124.710938 C 258.976562 124.707031 258.976562 124.707031 258.976562 124.707031 L 306.925781 76.757812 C 307.691406 75.992188 308.121094 74.957031 308.121094 73.875 C 308.121094 72.792969 307.691406 71.757812 306.925781 70.992188 L 272.480469 36.546875 C 272.480469 36.546875 272.480469 36.546875 272.476562 36.542969 L 256.335938 20.402344 C 254.742188 18.808594 252.164062 18.808594 250.570312 20.402344 "/>
<path style=" stroke:none;fill-rule:nonzero;fill:rgb(6.269836%,5.879211%,5.099487%);fill-opacity:1;" d="M 45.722656 236.777344 L 58.984375 250.035156 C 58.984375 250.039062 58.984375 250.039062 58.984375 250.039062 C 58.984375 250.042969 58.984375 250.042969 58.988281 250.042969 L 74.40625 265.460938 L 57.65625 282.210938 L 45.117188 269.671875 L 53.492188 261.296875 C 55.085938 259.707031 55.085938 257.125 53.492188 255.53125 C 51.902344 253.9375 49.320312 253.9375 47.726562 255.53125 L 39.351562 263.90625 L 28.972656 253.53125 Z M 85.09375 197.40625 C 89.824219 192.679688 97.523438 192.679688 102.257812 197.40625 L 129.921875 225.070312 C 132.210938 227.367188 133.472656 230.414062 133.472656 233.652344 C 133.472656 236.898438 132.210938 239.941406 129.921875 242.238281 L 121.75 250.402344 L 111.371094 240.027344 L 119.667969 231.730469 C 121.257812 230.136719 121.257812 227.554688 119.667969 225.964844 C 118.078125 224.371094 115.496094 224.371094 113.902344 225.964844 L 105.609375 234.257812 L 93.070312 221.722656 L 101.363281 213.425781 C 102.957031 211.835938 102.957031 209.253906 101.363281 207.660156 C 99.769531 206.066406 97.191406 206.066406 95.597656 207.660156 L 87.304688 215.957031 L 83.941406 212.59375 C 82.347656 211 79.769531 211 78.175781 212.59375 C 76.582031 214.183594 76.582031 216.765625 78.175781 218.359375 L 81.539062 221.722656 L 61.867188 241.394531 L 51.488281 231.011719 Z M 73.800781 308.195312 C 74.84375 308.195312 75.886719 307.800781 76.683594 307.003906 C 78.273438 305.410156 78.273438 302.828125 76.683594 301.238281 L 63.421875 287.976562 L 80.171875 271.226562 L 85.132812 276.1875 C 85.929688 276.984375 86.96875 277.378906 88.015625 277.378906 C 89.058594 277.378906 90.101562 276.984375 90.894531 276.1875 C 92.488281 274.59375 92.488281 272.011719 90.894531 270.421875 L 85.9375 265.460938 L 98.574219 252.824219 C 100.164062 251.234375 100.164062 248.652344 98.574219 247.058594 C 96.980469 245.464844 94.402344 245.464844 92.808594 247.058594 L 80.171875 259.695312 L 67.632812 247.15625 L 87.304688 227.484375 L 102.722656 242.902344 C 102.722656 242.90625 102.722656 242.90625 102.722656 242.90625 C 102.726562 242.910156 102.726562 242.910156 102.730469 242.914062 L 115.988281 256.171875 L 87.0625 285.09375 C 85.46875 286.683594 85.46875 289.269531 87.0625 290.859375 C 88.65625 292.449219 91.234375 292.449219 92.828125 290.859375 L 135.683594 248 C 139.515625 244.167969 141.628906 239.074219 141.628906 233.652344 C 141.628906 228.234375 139.515625 223.140625 135.683594 219.308594 L 108.023438 191.644531 C 100.113281 183.734375 87.242188 183.734375 79.328125 191.644531 L 20.324219 250.644531 C 18.734375 252.238281 18.734375 254.820312 20.324219 256.410156 L 70.917969 307.003906 C 71.714844 307.800781 72.757812 308.195312 73.800781 308.195312 "/>
<path style=" stroke:none;fill-rule:nonzero;fill:rgb(6.269836%,5.879211%,5.099487%);fill-opacity:1;" d="M 125.421875 201.90625 C 126.214844 202.703125 127.257812 203.105469 128.304688 203.105469 C 129.347656 203.105469 130.390625 202.703125 131.183594 201.90625 L 135.769531 197.320312 L 171.613281 233.167969 C 175.417969 236.96875 180.410156 238.871094 185.40625 238.871094 C 190.402344 238.871094 195.398438 236.96875 199.203125 233.167969 L 213.265625 219.105469 L 217.222656 223.0625 C 218.019531 223.859375 219.0625 224.257812 220.105469 224.257812 C 221.148438 224.257812 222.195312 223.859375 222.988281 223.0625 C 224.582031 221.472656 224.582031 218.890625 222.988281 217.300781 L 219.03125 213.335938 L 233.09375 199.277344 C 240.699219 191.671875 240.699219 179.296875 233.09375 171.691406 L 197.25 135.84375 L 201.832031 131.261719 C 203.425781 129.667969 203.425781 127.085938 201.832031 125.496094 C 200.242188 123.90625 197.660156 123.902344 196.066406 125.496094 L 191.484375 130.082031 L 166.578125 105.175781 C 164.988281 103.585938 162.40625 103.582031 160.808594 105.175781 C 159.21875 106.765625 159.21875 109.347656 160.808594 110.9375 L 188.597656 138.726562 C 188.597656 138.726562 188.597656 138.730469 188.601562 138.730469 C 188.601562 138.730469 188.605469 138.734375 188.605469 138.734375 L 227.324219 177.453125 C 231.753906 181.882812 231.753906 189.085938 227.324219 193.511719 L 210.386719 210.453125 C 210.382812 210.457031 210.382812 210.457031 210.378906 210.457031 C 210.378906 210.457031 210.378906 210.457031 210.378906 210.460938 L 193.4375 227.402344 C 189.011719 231.828125 181.804688 231.828125 177.378906 227.402344 L 98.425781 148.449219 L 110.429688 136.449219 C 112.019531 134.855469 112.019531 132.273438 110.429688 130.683594 C 108.835938 129.089844 106.253906 129.089844 104.660156 130.683594 L 89.78125 145.5625 C 89.78125 145.5625 89.777344 145.566406 89.777344 145.566406 C 89.777344 145.566406 89.777344 145.570312 89.777344 145.570312 L 86 149.347656 C 81.617188 153.726562 74.488281 153.726562 70.105469 149.347656 L 64.21875 143.457031 L 143.382812 64.292969 L 149.269531 70.179688 C 151.394531 72.304688 152.5625 75.125 152.5625 78.128906 C 152.5625 81.132812 151.394531 83.953125 149.269531 86.074219 L 136.75 98.597656 C 135.15625 100.1875 135.15625 102.769531 136.75 104.359375 C 138.339844 105.953125 140.921875 105.953125 142.511719 104.359375 L 155.039062 91.839844 C 158.699219 88.175781 160.714844 83.308594 160.714844 78.128906 C 160.714844 72.945312 158.699219 68.078125 155.039062 64.414062 L 146.265625 55.644531 C 144.675781 54.050781 142.09375 54.050781 140.5 55.644531 L 55.566406 140.578125 C 54.804688 141.339844 54.375 142.375 54.375 143.457031 C 54.375 144.539062 54.804688 145.574219 55.566406 146.339844 L 64.339844 155.113281 C 68.121094 158.890625 73.085938 160.78125 78.054688 160.78125 C 83.019531 160.78125 87.984375 158.890625 91.765625 155.113281 L 92.664062 154.214844 L 130.003906 191.558594 L 125.421875 196.144531 C 123.828125 197.734375 123.828125 200.316406 125.421875 201.90625 "/>
</g>
</svg>
