<?xml version="1.0" encoding="UTF-8"?>
<svg xmlns="http://www.w3.org/2000/svg" xmlns:xlink="http://www.w3.org/1999/xlink" width="375pt" height="374.999991pt" viewBox="0 0 375 374.999991" version="1.2">
<defs>
<clipPath id="clip1">
  <path d="M 142 37.5 L 228 37.5 L 228 123 L 142 123 Z M 142 37.5 "/>
</clipPath>
<clipPath id="clip2">
  <path d="M 39.011719 197 L 134 197 L 134 283 L 39.011719 283 Z M 39.011719 197 "/>
</clipPath>
<clipPath id="clip3">
  <path d="M 68 291 L 104 291 L 104 339 L 68 339 Z M 68 291 "/>
</clipPath>
</defs>
<g id="surface1">
<g clip-path="url(#clip1)" clip-rule="nonzero">
<path style=" stroke:none;fill-rule:nonzero;fill:rgb(0%,0%,0%);fill-opacity:1;" d="M 185.171875 122.300781 C 208.558594 122.300781 227.582031 103.277344 227.582031 79.898438 C 227.582031 56.523438 208.558594 37.5 185.171875 37.5 C 161.789062 37.5 142.765625 56.523438 142.765625 79.898438 C 142.765625 103.277344 161.789062 122.300781 185.171875 122.300781 Z M 185.171875 46.921875 C 203.355469 46.921875 218.15625 61.714844 218.15625 79.898438 C 218.15625 98.085938 203.355469 112.878906 185.171875 112.878906 C 166.992188 112.878906 152.191406 98.085938 152.191406 79.898438 C 152.191406 61.714844 166.992188 46.921875 185.171875 46.921875 Z M 185.171875 46.921875 "/>
</g>
<g clip-path="url(#clip2)" clip-rule="nonzero">
<path style=" stroke:none;fill-rule:nonzero;fill:rgb(0%,0%,0%);fill-opacity:1;" d="M 132.699219 280.144531 C 133.546875 278.699219 133.558594 276.914062 132.734375 275.457031 L 90.328125 200.082031 C 88.660156 197.113281 83.785156 197.113281 82.121094 200.082031 L 39.714844 275.457031 C 38.890625 276.917969 38.902344 278.699219 39.75 280.144531 C 40.597656 281.59375 42.144531 282.476562 43.816406 282.476562 L 128.632812 282.476562 C 130.308594 282.476562 131.855469 281.59375 132.699219 280.144531 Z M 51.875 273.054688 L 86.222656 212 L 120.574219 273.054688 Z M 51.875 273.054688 "/>
</g>
<path style=" stroke:none;fill-rule:nonzero;fill:rgb(0%,0%,0%);fill-opacity:1;" d="M 335.953125 202.390625 C 335.953125 199.789062 333.84375 197.679688 331.242188 197.679688 L 255.851562 197.679688 C 253.25 197.679688 251.140625 199.789062 251.140625 202.390625 L 251.140625 277.765625 C 251.140625 280.367188 253.25 282.476562 255.851562 282.476562 L 331.242188 282.476562 C 333.84375 282.476562 335.953125 280.367188 335.953125 277.765625 Z M 326.53125 273.054688 L 260.5625 273.054688 L 260.5625 207.101562 L 326.53125 207.101562 Z M 326.53125 273.054688 "/>
<path style=" stroke:none;fill-rule:nonzero;fill:rgb(0%,0%,0%);fill-opacity:1;" d="M 185.171875 306.035156 C 163.296875 306.035156 142.078125 299.777344 123.800781 287.949219 L 118.675781 295.859375 C 138.484375 308.679688 161.476562 315.457031 185.171875 315.457031 C 209.769531 315.457031 233.492188 308.195312 253.78125 294.457031 L 248.5 286.65625 C 229.777344 299.335938 207.878906 306.035156 185.171875 306.035156 Z M 185.171875 306.035156 "/>
<path style=" stroke:none;fill-rule:nonzero;fill:rgb(0%,0%,0%);fill-opacity:1;" d="M 298.171875 188.441406 L 307.589844 188.070312 C 305.820312 143.089844 279.566406 102.808594 239.078125 82.945312 L 234.925781 91.40625 C 272.300781 109.742188 296.539062 146.925781 298.171875 188.441406 Z M 298.171875 188.441406 "/>
<path style=" stroke:none;fill-rule:nonzero;fill:rgb(0%,0%,0%);fill-opacity:1;" d="M 72.445312 202.015625 C 72.210938 199.042969 72.089844 196 72.089844 192.96875 C 72.089844 149.488281 96.355469 110.570312 135.417969 91.40625 L 131.269531 82.945312 C 88.953125 103.710938 62.664062 145.863281 62.664062 192.96875 C 62.664062 196.25 62.792969 199.542969 63.050781 202.765625 Z M 72.445312 202.015625 "/>
<path style=" stroke:none;fill-rule:nonzero;fill:rgb(0%,0%,0%);fill-opacity:1;" d="M 115.875 71.859375 L 122.539062 78.519531 L 136.675781 64.386719 C 138.515625 62.542969 138.515625 59.566406 136.675781 57.726562 L 122.539062 43.589844 L 115.875 50.253906 L 121.96875 56.34375 L 90.9375 56.34375 L 90.9375 65.765625 L 121.96875 65.765625 Z M 115.875 71.859375 "/>
<path style=" stroke:none;fill-rule:nonzero;fill:rgb(0%,0%,0%);fill-opacity:1;" d="M 317.105469 145.855469 C 318.3125 145.855469 319.519531 145.394531 320.4375 144.476562 L 334.574219 130.34375 L 327.910156 123.679688 L 321.816406 129.773438 L 321.816406 98.746094 L 312.394531 98.746094 L 312.394531 129.773438 L 306.300781 123.679688 L 299.640625 130.34375 L 313.773438 144.476562 C 314.695312 145.394531 315.898438 145.855469 317.105469 145.855469 Z M 317.105469 145.855469 "/>
<g clip-path="url(#clip3)" clip-rule="nonzero">
<path style=" stroke:none;fill-rule:nonzero;fill:rgb(0%,0%,0%);fill-opacity:1;" d="M 82.894531 293.28125 L 68.757812 307.414062 L 75.421875 314.074219 L 81.511719 307.984375 L 81.511719 339.011719 L 90.9375 339.011719 L 90.9375 307.984375 L 97.027344 314.074219 L 103.691406 307.414062 L 89.554688 293.28125 C 87.71875 291.4375 84.734375 291.4375 82.894531 293.28125 Z M 82.894531 293.28125 "/>
</g>
<path style=" stroke:none;fill-rule:nonzero;fill:rgb(0%,0%,0%);fill-opacity:1;" d="M 227.582031 188.253906 C 227.582031 173.167969 219.457031 159.09375 206.382812 151.53125 L 201.660156 159.6875 C 211.832031 165.570312 218.15625 176.515625 218.15625 188.253906 C 218.15625 203.617188 207.574219 216.527344 193.328125 220.171875 L 198.816406 209.210938 L 190.386719 204.996094 L 180.960938 223.839844 C 180.054688 225.652344 180.410156 227.84375 181.847656 229.277344 L 195.984375 243.410156 L 202.644531 236.746094 L 195.285156 229.386719 C 213.792969 224.835938 227.582031 208.144531 227.582031 188.253906 Z M 227.582031 188.253906 "/>
<path style=" stroke:none;fill-rule:nonzero;fill:rgb(0%,0%,0%);fill-opacity:1;" d="M 163.980469 224.988281 L 168.691406 216.832031 C 158.515625 210.949219 152.191406 200 152.191406 188.253906 C 152.191406 172.894531 162.773438 159.984375 177.015625 156.339844 L 171.53125 167.300781 L 179.960938 171.515625 L 189.386719 152.671875 C 190.289062 150.859375 189.9375 148.667969 188.5 147.234375 L 174.363281 133.101562 L 167.703125 139.765625 L 175.0625 147.125 C 156.558594 151.675781 142.765625 168.367188 142.765625 188.253906 C 142.765625 203.355469 150.894531 217.425781 163.980469 224.988281 Z M 163.980469 224.988281 "/>
</g>
</svg>
