<?xml version="1.0" encoding="UTF-8"?>
<svg xmlns="http://www.w3.org/2000/svg" xmlns:xlink="http://www.w3.org/1999/xlink" width="375pt" height="374.999991pt" viewBox="0 0 375 374.999991" version="1.2">
<defs>
<clipPath id="clip1">
  <path d="M 27.433594 48.445312 L 347.683594 48.445312 L 347.683594 326.695312 L 27.433594 326.695312 Z M 27.433594 48.445312 "/>
</clipPath>
<clipPath id="clip2">
  <path d="M 46.472656 48.445312 L 123.710938 48.445312 L 123.710938 155.542969 L 46.472656 155.542969 Z M 46.472656 48.445312 "/>
</clipPath>
</defs>
<g id="surface1">
<g clip-path="url(#clip1)" clip-rule="nonzero">
<path style=" stroke:none;fill-rule:nonzero;fill:rgb(0%,0%,0%);fill-opacity:1;" d="M 145.875 48.445312 L 145.875 180.679688 L 27.582031 180.679688 L 27.582031 194.597656 L 145.875 194.597656 L 145.875 326.835938 L 159.792969 326.835938 L 159.792969 48.445312 Z M 215.457031 48.445312 L 215.457031 326.835938 L 229.375 326.835938 L 229.375 194.597656 L 347.667969 194.597656 L 347.667969 180.679688 L 229.375 180.679688 L 229.375 48.445312 Z M 215.457031 48.445312 "/>
</g>
<g clip-path="url(#clip2)" clip-rule="nonzero">
<path style=" stroke:none;fill-rule:nonzero;fill:rgb(0%,0%,0%);fill-opacity:1;" d="M 70.113281 48.445312 C 70.113281 48.445312 85.480469 69.414062 74.75 82.207031 C 68.578125 89.5625 64.335938 93.5625 61.84375 95.632812 C 57.847656 98.957031 54.386719 102.886719 51.769531 107.367188 C 44.820312 119.273438 39.570312 139.785156 70.777344 155.542969 C 70.777344 155.542969 52.757812 138 76.738281 111.882812 C 76.738281 111.882812 76.738281 128.765625 81.902344 130.875 C 87.070312 132.988281 91.441406 116.765625 91.441406 116.765625 C 91.441406 116.765625 106.9375 143.273438 95.945312 154.882812 C 95.945312 154.882812 137.539062 145.78125 118.996094 96.714844 C 118.996094 96.714844 116.875 107.269531 107.070312 108.851562 C 107.070312 108.851562 120.1875 61.765625 70.113281 48.445312 "/>
</g>
</g>
</svg>
