<?xml version="1.0" encoding="UTF-8"?>
<svg xmlns="http://www.w3.org/2000/svg" xmlns:xlink="http://www.w3.org/1999/xlink" width="375pt" height="374.999991pt" viewBox="0 0 375 374.999991" version="1.2">
<defs>
<clipPath id="clip1">
  <path d="M 69.953125 324 L 304.363281 324 L 304.363281 352.949219 L 69.953125 352.949219 Z M 69.953125 324 "/>
</clipPath>
<clipPath id="clip2">
  <path d="M 79 21.648438 L 296 21.648438 L 296 339 L 79 339 Z M 79 21.648438 "/>
</clipPath>
</defs>
<g id="surface1">
<g clip-path="url(#clip1)" clip-rule="nonzero">
<path style=" stroke:none;fill-rule:nonzero;fill:rgb(6.269836%,5.879211%,5.099487%);fill-opacity:1;" d="M 206.191406 324.125 C 198.3125 335.535156 193.238281 342.519531 193.121094 342.679688 C 191.730469 344.585938 189.515625 345.710938 187.15625 345.710938 C 184.800781 345.710938 182.585938 344.585938 181.195312 342.679688 C 181.078125 342.519531 176 335.535156 168.121094 324.125 C 112.445312 325.242188 69.949219 331.171875 69.949219 338.316406 C 69.949219 346.261719 122.425781 352.699219 187.15625 352.699219 C 251.890625 352.699219 304.367188 346.261719 304.367188 338.316406 C 304.367188 331.171875 261.871094 325.242188 206.191406 324.125 "/>
</g>
<g clip-path="url(#clip2)" clip-rule="nonzero">
<path style=" stroke:none;fill-rule:nonzero;fill:rgb(6.269836%,5.879211%,5.099487%);fill-opacity:1;" d="M 187.15625 209.785156 C 143.273438 209.785156 107.695312 174.152344 107.695312 130.191406 C 107.695312 86.234375 143.273438 50.597656 187.15625 50.597656 C 231.042969 50.597656 266.617188 86.234375 266.617188 130.191406 C 266.617188 174.152344 231.042969 209.785156 187.15625 209.785156 Z M 187.15625 21.894531 C 127.445312 21.894531 79.042969 70.378906 79.042969 130.191406 C 79.042969 190.003906 187.15625 338.316406 187.15625 338.316406 C 187.15625 338.316406 295.269531 190.003906 295.269531 130.191406 C 295.269531 70.378906 246.867188 21.894531 187.15625 21.894531 "/>
</g>
<path style=" stroke:none;fill-rule:nonzero;fill:rgb(6.269836%,5.879211%,5.099487%);fill-opacity:1;" d="M 194.09375 191.183594 C 180.226562 194.972656 165.917969 186.78125 162.128906 172.890625 C 160.28125 166.09375 160.882812 158.667969 163.082031 151.507812 C 164.539062 154.210938 166.207031 156.386719 168.0625 158.097656 C 171.058594 142.933594 177.453125 130.164062 187.085938 119.683594 C 194.207031 145.824219 207.480469 141.253906 212.355469 159.164062 C 216.140625 173.058594 207.964844 187.394531 194.09375 191.183594 Z M 224.230469 109.195312 C 222.90625 114.882812 220.941406 119.71875 218.386719 123.78125 C 205.308594 97.464844 187.199219 77.25 164.289062 62.847656 C 164.289062 114.371094 137.652344 112.648438 137.652344 147.949219 C 137.652344 175.335938 159.816406 197.535156 187.15625 197.535156 C 214.496094 197.535156 236.660156 175.335938 236.660156 147.949219 C 236.660156 134.550781 231.84375 121.226562 224.230469 109.195312 "/>
</g>
</svg>
