<?xml version="1.0" encoding="UTF-8"?>
<svg xmlns="http://www.w3.org/2000/svg" xmlns:xlink="http://www.w3.org/1999/xlink" width="375pt" height="374.999991pt" viewBox="0 0 375 374.999991" version="1.2">
<defs>
<clipPath id="clip1">
  <path d="M 37.5 24.1875 L 350.941406 24.1875 L 350.941406 337.628906 L 37.5 337.628906 Z M 37.5 24.1875 "/>
</clipPath>
</defs>
<g id="surface1">
<g clip-path="url(#clip1)" clip-rule="nonzero">
<path style=" stroke:none;fill-rule:nonzero;fill:rgb(0%,0%,0%);fill-opacity:1;" d="M 339.949219 68.832031 L 317.847656 90.953125 L 287.109375 60.214844 L 312.121094 35.179688 L 336.59375 35.179688 C 338.445312 35.179688 339.949219 36.703125 339.949219 38.535156 Z M 339.949219 146.050781 L 317.847656 168.152344 L 287.359375 137.683594 L 325.949219 99.09375 L 325.71875 98.804688 L 339.949219 84.570312 Z M 339.949219 223.25 L 317.847656 245.371094 L 287.359375 214.898438 L 325.949219 176.289062 L 325.71875 176.039062 L 339.949219 161.808594 Z M 339.949219 300.488281 L 317.847656 322.609375 L 287.359375 292.097656 L 325.949219 253.507812 L 325.71875 253.257812 L 339.949219 239.007812 Z M 339.949219 323.320312 C 339.949219 325.152344 338.445312 326.636719 336.59375 326.636719 L 329.304688 326.636719 L 339.949219 315.992188 Z M 244.875 326.636719 L 203.96875 285.695312 L 234.671875 254.992188 L 271.5625 291.867188 L 271.292969 292.097656 L 305.835938 326.636719 Z M 163.007812 326.636719 L 196.179688 293.488281 L 229.328125 326.636719 Z M 121.0625 292.097656 L 159.652344 253.507812 L 159.421875 253.257812 L 196.292969 216.382812 L 226.765625 246.855469 L 188.15625 285.445312 L 188.40625 285.695312 L 151.535156 322.609375 Z M 78.578125 326.636719 L 48.492188 296.554688 L 48.492188 274.335938 L 68.105469 254.742188 L 105.25 291.867188 L 105 292.097656 L 139.5 326.636719 Z M 51.828125 326.636719 C 49.976562 326.636719 48.492188 325.152344 48.492188 323.320312 L 48.492188 312.117188 L 63.015625 326.636719 Z M 48.492188 234.878906 L 60.449219 246.855469 L 48.492188 258.8125 Z M 48.492188 197.136719 L 68.105469 177.503906 L 105.25 214.648438 L 105 214.898438 L 143.605469 253.507812 L 113.136719 283.960938 L 48.492188 219.355469 Z M 48.492188 157.679688 L 60.449219 169.636719 L 48.492188 181.59375 Z M 48.492188 119.902344 L 68.105469 100.289062 L 105.25 137.429688 L 105 137.683594 L 143.605469 176.289062 L 113.136719 206.761719 L 48.492188 142.117188 Z M 48.492188 80.445312 L 60.449219 92.398438 L 48.492188 104.355469 Z M 48.492188 38.535156 C 48.492188 36.703125 49.976562 35.179688 51.828125 35.179688 L 80.199219 35.179688 L 105.25 60.214844 L 105 60.445312 L 143.605469 99.054688 L 113.136719 129.542969 L 48.492188 64.898438 Z M 130.261719 35.179688 L 113.019531 52.421875 L 95.78125 35.179688 Z M 206.765625 35.179688 L 188.15625 53.792969 L 188.40625 54.042969 L 151.535156 90.953125 L 120.773438 60.214844 L 145.804688 35.179688 Z M 242.558594 169.886719 L 242.808594 169.636719 L 204.199219 131.007812 L 234.671875 100.539062 L 271.546875 137.410156 L 271.292969 137.683594 L 309.902344 176.289062 L 279.433594 206.761719 Z M 159.421875 98.804688 L 196.292969 61.929688 L 226.765625 92.398438 L 188.15625 131.007812 L 188.40625 131.277344 L 151.535156 168.152344 L 121.0625 137.683594 L 159.652344 99.09375 Z M 188.40625 208.496094 L 151.535156 245.371094 L 121.0625 214.898438 L 159.652344 176.289062 L 159.421875 176.039062 L 196.292969 139.148438 L 226.765625 169.636719 L 188.15625 208.246094 Z M 204.199219 208.246094 L 234.671875 177.777344 L 271.546875 214.648438 L 271.292969 214.898438 L 309.921875 253.507812 L 279.433594 283.960938 L 242.558594 247.085938 L 242.808594 246.855469 Z M 246.53125 35.179688 L 271.5625 60.214844 L 271.292969 60.445312 L 309.921875 99.054688 L 279.433594 129.542969 L 242.558594 92.652344 L 242.808594 92.398438 L 204.199219 53.792969 L 222.8125 35.179688 Z M 296.558594 35.179688 L 279.316406 52.421875 L 262.074219 35.179688 Z M 336.59375 24.1875 L 51.828125 24.1875 C 51.695312 24.1875 51.539062 24.1875 51.40625 24.207031 C 43.824219 24.402344 37.75 30.515625 37.539062 38.09375 C 37.5 38.226562 37.5 38.402344 37.5 38.535156 L 37.5 323.320312 C 37.5 331.226562 43.902344 337.628906 51.828125 337.628906 L 336.59375 337.628906 C 344.519531 337.628906 350.941406 331.226562 350.941406 323.320312 L 350.941406 38.535156 C 350.941406 30.628906 344.519531 24.1875 336.59375 24.1875 "/>
</g>
</g>
</svg>
