<?xml version="1.0" encoding="UTF-8"?>
<svg xmlns="http://www.w3.org/2000/svg" xmlns:xlink="http://www.w3.org/1999/xlink" width="375pt" height="374.999991pt" viewBox="0 0 375 374.999991" version="1.2">
<defs>
<clipPath id="clip1">
  <path d="M 51 13 L 324 13 L 324 362.089844 L 51 362.089844 Z M 51 13 "/>
</clipPath>
</defs>
<g id="surface1">
<g clip-path="url(#clip1)" clip-rule="nonzero">
<path style=" stroke:none;fill-rule:nonzero;fill:rgb(0%,0%,0%);fill-opacity:1;" d="M 211.753906 362.125 C 203.855469 362.125 195.988281 361.027344 188.214844 358.820312 C 173.703125 354.703125 160.414062 343.210938 153.527344 328.824219 C 146.5625 314.28125 146.367188 297.753906 152.972656 282.289062 C 155.199219 277.078125 161.238281 274.632812 166.472656 276.871094 C 171.703125 279.089844 174.136719 285.117188 171.90625 290.335938 C 166.449219 303.109375 169 313.507812 172.101562 319.980469 C 176.519531 329.210938 184.847656 336.53125 193.847656 339.082031 C 239.179688 351.941406 280.402344 312.4375 293.96875 281.683594 C 303.628906 259.785156 311.375 207.625 284.222656 171.578125 C 282.816406 189.617188 275.402344 205.34375 262.679688 216.125 C 248.253906 228.355469 229.417969 231.800781 213.519531 225.105469 C 199.753906 219.3125 190.34375 209.648438 186.296875 197.15625 C 181.609375 182.667969 184.558594 164.59375 194.199219 148.808594 C 212.859375 118.214844 222.601562 94.890625 194.941406 47.730469 C 176.773438 100.355469 151.035156 121.410156 128.023438 140.234375 C 108.144531 156.496094 90.976562 170.539062 79.21875 203.148438 C 75.355469 213.867188 73.085938 224.996094 72.46875 236.234375 C 71.253906 258.347656 78.058594 275.378906 93.863281 289.824219 C 98.054688 293.652344 98.339844 300.144531 94.5 304.324219 C 90.652344 308.492188 84.148438 308.773438 79.960938 304.957031 C 59.820312 286.550781 50.386719 263.054688 51.917969 235.109375 C 52.644531 221.886719 55.3125 208.796875 59.847656 196.207031 C 73.53125 158.265625 94.597656 141.03125 114.96875 124.367188 C 139.636719 104.191406 165.144531 83.328125 181.574219 20.863281 C 182.59375 16.988281 185.78125 14.0625 189.734375 13.363281 C 193.695312 12.640625 197.691406 14.328125 199.980469 17.617188 C 244.5625 81.625 239.304688 114.359375 211.78125 159.472656 C 205.308594 170.074219 203.050781 182.097656 205.886719 190.847656 C 208.066406 197.589844 213.328125 202.75 221.519531 206.195312 C 230.214844 209.847656 240.882812 207.667969 249.351562 200.488281 C 262.410156 189.421875 267.039062 169.742188 261.722656 147.851562 C 260.714844 143.699219 262.394531 139.359375 265.9375 136.957031 C 269.46875 134.546875 274.140625 134.585938 277.644531 137.042969 C 303.742188 155.339844 319.316406 183.675781 322.675781 218.980469 C 325.484375 248.476562 319.121094 275.644531 312.8125 289.945312 C 303.492188 311.074219 285.851562 331.613281 265.617188 344.894531 C 248.203125 356.316406 229.925781 362.117188 211.753906 362.125 Z M 211.753906 362.125 "/>
</g>
</g>
</svg>
